<?xml version="1.0" standalone="no"?>
<!DOCTYPE svg PUBLIC "-//W3C//DTD SVG 20010904//EN"
 "http://www.w3.org/TR/2001/REC-SVG-20010904/DTD/svg10.dtd">
<svg version="1.0" xmlns="http://www.w3.org/2000/svg"
 width="2040.000000pt" height="1082.000000pt" viewBox="0 0 2040.000000 1082.000000"
 preserveAspectRatio="xMidYMid meet">

<g transform="translate(0.000000,1082.000000) scale(0.100000,-0.100000)"
fill="#fff" stroke="none">
<path d="M7700 10798 c-11 -12 -33 -22 -48 -23 -21 0 -28 -5 -30 -25 -6 -39
-18 -45 -49 -20 l-28 22 -5 -21 c-9 -37 -57 -88 -129 -135 -77 -51 -99 -87
-121 -191 -19 -85 -16 -211 4 -258 16 -37 16 -37 -6 -46 -13 -5 -63 -38 -112
-75 -49 -36 -94 -66 -102 -66 -7 0 -25 11 -41 24 -53 44 -74 50 -164 48 -79
-2 -87 -1 -92 18 -8 32 -63 26 -124 -12 -28 -18 -95 -73 -148 -121 -110 -100
-135 -114 -177 -96 -33 14 -27 24 21 36 19 5 36 14 38 20 10 30 -151 18 -303
-22 -182 -48 -295 -120 -369 -234 -46 -73 -75 -91 -144 -91 -63 0 -109 -20
-168 -71 -32 -28 -88 -66 -125 -85 -73 -37 -146 -104 -215 -198 -65 -88 -98
-156 -85 -176 8 -13 1 -25 -37 -57 -81 -70 -305 -236 -395 -293 -48 -30 -113
-74 -144 -98 -31 -23 -109 -78 -173 -122 -63 -44 -142 -103 -175 -130 -104
-87 -130 -102 -182 -105 -57 -3 -102 -25 -247 -120 -60 -40 -166 -104 -235
-142 -69 -38 -139 -83 -157 -99 -17 -17 -121 -92 -230 -167 -249 -171 -356
-257 -384 -307 -17 -30 -32 -43 -59 -50 -75 -20 -296 -172 -504 -344 -72 -60
-154 -119 -181 -132 -28 -12 -57 -29 -64 -38 -13 -15 -93 -73 -320 -231 -142
-99 -189 -155 -130 -155 10 0 19 -6 19 -13 0 -24 -143 -157 -198 -184 -53 -26
-54 -26 -205 -18 -186 10 -219 9 -230 -10 -16 -30 -65 -16 -113 32 -23 23 -31
25 -79 20 -76 -8 -95 -20 -95 -63 0 -40 -41 -90 -66 -80 -10 4 -26 -12 -49
-49 -39 -60 -59 -75 -103 -75 -16 0 -40 -9 -53 -19 -31 -25 -19 -46 41 -80 34
-19 61 -25 118 -27 130 -4 124 -44 -7 -53 -44 -4 -83 -9 -86 -13 -11 -11 27
-25 88 -32 59 -6 137 -33 137 -46 0 -4 -9 -10 -21 -13 -17 -5 -20 -12 -18 -49
3 -49 -5 -68 -27 -68 -24 0 -16 -18 21 -47 41 -33 43 -40 13 -45 -48 -7 -27
-29 74 -76 57 -27 116 -60 132 -75 18 -17 40 -27 60 -27 69 -1 393 -164 383
-194 -7 -20 -90 -12 -123 13 -22 16 -41 22 -70 19 -68 -5 -47 -28 98 -104 76
-40 166 -93 200 -118 92 -67 187 -130 241 -160 46 -26 61 -46 34 -46 -7 0 -60
16 -117 35 -161 54 -194 46 -88 -24 35 -22 72 -47 83 -55 24 -18 115 -32 272
-42 150 -9 219 0 239 31 23 35 6 81 -27 77 -79 -10 -287 46 -319 87 -22 27
-80 54 -198 91 -56 17 -102 36 -102 42 0 6 8 17 18 24 16 13 14 16 -18 44
l-35 29 50 2 c130 3 195 -9 277 -51 55 -29 195 -80 218 -80 25 0 -4 20 -83 58
-45 22 -91 49 -102 62 -20 22 -20 22 0 37 28 21 88 11 126 -21 37 -32 64 -35
56 -6 -7 26 19 40 73 40 50 0 81 -15 74 -35 -5 -12 5 -15 56 -15 73 0 126 -14
161 -42 l24 -19 -75 6 c-41 3 -97 8 -125 11 -49 5 -48 4 81 -63 142 -74 164
-88 164 -109 0 -10 -29 -14 -127 -16 l-128 -3 50 -24 c40 -19 64 -23 120 -22
191 7 149 19 422 -121 262 -133 313 -154 344 -137 27 14 23 31 -16 69 -39 37
-37 42 18 60 21 6 36 17 34 23 -2 7 -52 41 -110 77 -59 37 -115 74 -124 83
-16 16 -15 18 7 42 l23 25 -34 0 -34 1 28 24 c35 31 34 36 -3 23 -65 -22 -150
19 -150 72 0 33 31 60 67 60 28 0 28 3 6 42 -17 28 -17 30 1 44 24 17 34 17
391 19 275 1 334 7 343 35 4 11 -50 12 -328 7 -342 -6 -582 4 -629 26 -20 9
-27 22 -31 52 -4 29 -10 41 -24 43 -16 3 -18 0 -12 -22 11 -43 -18 -43 -73 -1
-54 41 -95 91 -83 99 28 17 247 -72 309 -125 49 -43 62 -47 65 -21 5 68 -17
112 -58 112 -32 0 -54 10 -54 25 0 17 -23 25 -68 25 -46 0 -91 29 -112 70 -14
30 -19 32 -75 34 -103 5 -155 46 -57 46 71 0 168 -24 257 -63 44 -20 92 -39
108 -42 52 -13 27 13 -49 50 -75 37 -185 127 -172 140 4 4 32 -5 64 -19 105
-48 91 -21 -18 35 -135 69 -173 155 -71 162 24 2 28 -2 26 -20 -2 -13 0 -23 3
-23 13 0 81 40 97 58 15 17 16 20 3 25 -18 7 -96 -5 -228 -34 -127 -29 -157
-18 -101 35 16 14 44 36 63 49 23 15 35 31 34 45 -1 30 9 28 93 -15 60 -31 77
-36 99 -28 49 18 41 35 -16 35 -37 0 -50 4 -48 13 8 21 92 67 138 75 33 5 48
14 57 31 8 17 29 30 70 42 97 30 317 146 378 200 32 27 82 63 113 78 112 57
178 121 125 121 -30 0 -136 -55 -253 -130 -174 -112 -143 -105 -499 -110 -32
0 -33 -1 -18 -18 24 -26 22 -29 -26 -53 -23 -12 -52 -31 -64 -42 l-23 -20 0
36 c0 28 8 44 36 73 42 41 146 94 185 94 61 0 199 132 199 191 0 35 44 74 184
162 116 72 349 238 343 243 -2 2 -90 -10 -196 -27 -196 -30 -230 -29 -201 6 8
10 30 15 65 15 30 0 60 3 69 6 23 9 20 26 -4 19 -14 -4 -22 -1 -26 10 -12 31
10 36 71 15 83 -29 97 -26 161 30 31 28 65 50 74 50 36 0 194 130 177 146 -8
8 -82 -30 -130 -68 -66 -53 -167 -98 -217 -98 l-45 1 33 28 c31 26 69 42 134
56 20 4 32 16 42 40 26 61 177 202 298 278 31 19 175 60 192 54 20 -8 -81 -95
-123 -107 -54 -14 -118 -90 -76 -90 59 0 440 271 846 600 68 55 138 107 155
115 18 8 46 31 64 51 17 20 34 34 37 31 13 -14 -50 -120 -109 -183 -92 -98
-106 -132 -50 -117 18 4 23 3 17 -6 -14 -24 -170 -134 -220 -156 -61 -27 -158
-102 -150 -115 11 -17 41 -11 80 16 21 14 43 23 50 20 8 -3 52 15 100 40 98
50 140 56 151 22 9 -31 7 -34 -22 -30 -31 4 -81 -15 -88 -33 -3 -8 2 -19 10
-25 11 -10 19 -9 39 4 13 9 40 16 60 16 23 0 38 6 41 15 12 31 -7 85 -42 119
l-34 33 28 6 c16 3 63 37 108 78 92 84 173 139 299 201 100 50 163 73 173 64
3 -4 -1 -19 -11 -35 -15 -26 -15 -29 0 -44 16 -16 15 -19 -12 -47 -15 -16 -46
-42 -67 -56 -46 -32 -57 -64 -34 -99 16 -24 16 -25 -8 -25 -24 0 -86 -44 -86
-61 0 -26 65 9 319 174 195 126 245 150 302 142 42 -6 48 -4 68 21 25 32 27
44 6 44 -27 0 -16 16 28 40 23 13 87 54 142 91 126 83 137 89 174 89 26 0 31
4 31 25 0 30 65 81 116 91 28 5 33 10 29 28 -4 18 5 25 55 49 140 66 506 370
584 486 53 78 264 301 285 301 8 0 11 -6 7 -16 -9 -23 3 -37 20 -23 8 7 14 30
14 59 0 38 8 59 41 111 23 35 47 76 53 91 28 66 346 396 436 453 34 21 50 25
77 20 l35 -6 -21 29 c-11 17 -21 42 -21 56 0 30 59 107 170 221 43 44 87 98
98 120 29 60 62 172 62 214 0 33 -6 43 -50 80 -28 23 -53 54 -56 69 -14 56
-40 66 -74 30z m70 -195 c40 -50 48 -80 24 -98 -33 -25 -82 -18 -115 14 -35
35 -37 66 -7 98 31 34 61 29 98 -14z m-1024 -621 c-8 -24 -37 -36 -66 -27 -25
8 -26 27 -2 47 39 34 81 22 68 -20z m504 32 c0 -22 -39 -74 -55 -74 -37 0 -28
53 13 75 35 19 42 18 42 -1z m-150 -153 c0 -11 -95 -93 -127 -110 -34 -18 -28
1 15 40 70 67 112 93 112 70z m-1211 -607 c52 -15 91 -43 91 -65 0 -30 -176
-156 -405 -290 -114 -67 -265 -199 -265 -233 0 -24 35 -34 89 -25 25 4 47 6
49 4 3 -3 -171 -129 -219 -159 -64 -40 -42 16 25 65 71 51 69 79 -5 79 -26 0
-44 -8 -67 -30 -38 -36 -88 -62 -262 -134 -103 -43 -143 -65 -167 -92 -17 -20
-58 -48 -90 -63 -32 -16 -140 -83 -240 -150 -186 -124 -318 -195 -350 -189
-34 6 -24 37 34 100 47 52 54 63 39 66 -11 2 -54 -20 -100 -51 -44 -31 -83
-51 -85 -46 -7 22 34 105 73 147 59 65 116 100 213 133 116 39 289 131 462
246 130 87 195 143 310 267 21 23 73 55 138 86 56 27 104 55 104 62 1 7 2 22
3 33 1 16 7 20 35 18 79 -3 163 -43 92 -43 -34 0 -60 -25 -43 -42 18 -18 93
34 207 142 57 54 114 101 126 105 27 9 59 -24 59 -60 0 -23 -29 -35 -90 -35
-35 0 -64 -31 -55 -59 8 -25 32 -27 105 -5 51 15 110 60 110 84 0 7 -9 14 -20
17 -26 7 -25 15 5 43 35 33 32 40 -20 40 -137 0 -401 -96 -392 -143 3 -15 -33
-10 -52 8 -21 21 45 86 126 123 128 58 321 79 432 46z m-109 -458 c0 -16 -37
-46 -57 -46 -18 0 -16 20 4 42 19 22 53 24 53 4z m-712 -428 c-8 -24 -103 -89
-203 -137 -116 -57 -161 -71 -230 -71 l-50 1 40 35 c81 72 165 94 115 31 -15
-19 -17 -27 -8 -27 14 0 189 95 272 148 54 34 70 39 64 20z m-1032 -439 c3 -6
-3 -20 -14 -32 -19 -19 -22 -19 -28 -4 -13 35 23 66 42 36z m520 -40 c10 -16
-22 -43 -42 -35 -16 6 -16 8 1 26 20 23 31 25 41 9z m-931 -265 c31 -20 32
-38 3 -28 -31 9 -49 24 -42 35 7 12 11 11 39 -7z m-71 -94 c-15 -15 -44 -2
-44 19 0 29 13 33 34 11 14 -14 17 -23 10 -30z m-1134 -804 c0 -16 -37 -46
-57 -46 -18 0 -16 20 4 42 19 22 53 24 53 4z m-120 -90 c0 -22 -26 -37 -71
-43 -50 -7 -47 7 9 37 44 23 62 25 62 6z m216 -405 c-41 -45 -246 -115 -234
-80 10 30 161 98 217 99 33 0 33 -1 17 -19z m-897 -37 c-54 -57 -158 -108
-147 -71 3 9 151 95 167 97 3 0 -6 -12 -20 -26z m-333 -45 c10 -16 -22 -43
-42 -35 -16 6 -16 8 1 26 20 23 31 25 41 9z m994 -53 c0 -6 -118 -86 -128 -86
-5 0 -13 11 -16 25 -7 29 -33 32 -77 9 -17 -8 -33 -14 -35 -11 -10 9 40 41 83
53 43 11 173 19 173 10z m-1780 -181 c7 -8 9 -22 6 -31 -6 -15 -8 -15 -26 1
-11 10 -20 24 -20 32 0 18 25 17 40 -2z m1120 -340 c27 -14 60 -51 60 -67 0
-16 -39 -7 -99 24 -33 17 -61 37 -61 45 0 18 63 17 100 -2z m-1060 -82 c0 -18
-39 -17 -46 2 -4 8 -3 22 0 31 6 15 8 15 26 -1 11 -10 20 -24 20 -32z m120
-60 c0 -18 -39 -17 -46 2 -4 8 -3 22 0 31 6 15 8 15 26 -1 11 -10 20 -24 20
-32z m904 22 c17 -18 41 -28 79 -35 60 -9 137 -45 183 -83 57 -47 88 -57 184
-57 100 0 132 -10 207 -62 l48 -33 -85 -12 c-47 -6 -110 -12 -140 -12 -54 -1
-58 1 -135 64 -56 45 -92 67 -118 71 -21 4 -58 20 -83 36 l-45 30 -39 -27
c-78 -54 -203 -43 -290 26 -27 22 -52 39 -55 39 -3 0 -5 -11 -5 -24 0 -14 -10
-32 -22 -41 l-23 -16 26 -22 c15 -12 43 -35 63 -50 21 -16 35 -31 32 -34 -2
-3 -40 11 -84 31 -61 28 -93 36 -136 36 l-55 0 5 30 c7 34 2 36 -109 43 -74 5
-87 11 -68 30 8 8 57 12 166 12 104 0 158 4 166 12 17 17 1 34 -25 27 -29 -7
-58 22 -31 32 30 12 137 -4 244 -36 57 -17 105 -29 107 -27 3 2 -11 16 -31 31
-19 15 -35 31 -35 37 0 5 18 9 40 9 31 0 47 -6 64 -25z m1 -201 c31 -20 32
-38 3 -28 -31 9 -49 24 -42 35 7 12 11 11 39 -7z m885 -123 c0 -13 -45 -27
-160 -50 -93 -19 -95 -19 -132 0 -21 11 -38 23 -38 28 0 5 35 12 78 16 42 3
88 7 102 9 60 7 150 5 150 -3z m-76 -107 c24 -9 19 -24 -8 -24 -28 0 -43 16
-24 23 7 3 14 6 15 6 1 1 8 -2 17 -5z m-129 -87 c57 -28 115 -68 115 -78 0
-30 -105 10 -163 61 -63 55 -42 63 48 17z m395 -222 c16 -19 6 -45 -18 -45
-23 0 -56 35 -47 49 9 16 51 13 65 -4z m138 -57 c9 -9 8 -16 -5 -30 -21 -24
-46 -23 -69 3 -16 17 -16 22 -4 29 21 13 64 12 78 -2z"/>
<path d="M5195 8882 c-34 -21 -60 -50 -52 -58 7 -7 117 56 117 67 0 15 -33 10
-65 -9z"/>
<path d="M6929 10122 c-74 -20 -119 -45 -119 -67 0 -19 5 -19 34 0 20 13 66
21 234 41 48 6 53 16 17 32 -35 16 -88 14 -166 -6z"/>
<path d="M7177 9609 c-21 -12 -61 -88 -52 -97 9 -9 85 76 85 94 0 16 -8 17
-33 3z"/>
<path d="M4812 9080 c-80 -19 -63 -53 25 -54 66 0 133 19 133 39 0 24 -86 32
-158 15z"/>
<path d="M18251 8381 c-12 -8 -9 -11 11 -16 32 -8 57 3 37 16 -18 11 -30 11
-48 0z"/>
<path d="M5270 7946 c-19 -14 -51 -34 -71 -45 -33 -18 -79 -89 -79 -120 0 -29
27 -15 84 45 35 37 84 77 108 88 23 12 43 28 43 36 0 25 -48 23 -85 -4z"/>
<path d="M11925 7946 c-16 -12 -18 -17 -7 -28 15 -15 47 0 47 22 0 20 -18 22
-40 6z"/>
<path d="M9758 7840 c-65 -34 -87 -57 -43 -46 25 6 115 63 115 73 0 7 -18 0
-72 -27z"/>
<path d="M9409 7756 c-110 -48 -245 -122 -240 -132 7 -16 45 -4 166 56 184 91
240 149 74 76z"/>
<path d="M4590 7669 c-47 -28 -80 -60 -80 -76 0 -20 18 -16 56 13 36 28 81 84
67 84 -4 0 -24 -10 -43 -21z"/>
<path d="M9035 7590 c-60 -17 -80 -39 -57 -62 12 -12 85 26 116 61 22 24 21
24 -59 1z"/>
<path d="M4464 7495 c-47 -25 -89 -45 -94 -45 -4 0 -6 10 -3 21 5 19 3 20 -18
13 -37 -13 -77 -9 -97 10 -18 15 -18 14 -14 -12 4 -29 -8 -43 -117 -130 -23
-18 -41 -42 -41 -53 0 -27 17 -24 32 8 24 49 124 85 193 70 17 -4 68 -9 113
-11 68 -3 88 -8 106 -25 12 -12 31 -21 43 -21 21 0 53 29 53 49 0 18 -45 31
-108 31 l-57 1 35 27 c88 68 118 112 75 112 -8 0 -53 -20 -101 -45z"/>
<path d="M8581 7434 c-18 -7 -30 -18 -26 -24 9 -14 58 -13 73 2 28 28 0 42
-47 22z"/>
<path d="M4241 7323 c-15 -43 -38 -73 -56 -73 -30 0 -235 -150 -235 -172 0 -5
24 4 54 20 66 38 316 202 316 208 0 3 -7 16 -16 29 -24 36 -48 32 -63 -12z"/>
<path d="M8120 7215 c15 -19 78 -31 92 -17 11 11 -40 32 -80 32 -20 0 -22 -2
-12 -15z"/>
<path d="M7860 7187 c0 -31 14 -57 32 -57 12 0 10 35 -4 65 -16 35 -28 31 -28
-8z"/>
<path d="M7470 7135 c0 -28 25 -44 42 -27 9 9 7 17 -7 32 -24 27 -35 25 -35
-5z"/>
<path d="M7570 7147 c0 -24 25 -37 79 -44 63 -7 68 8 9 30 -77 28 -88 30 -88
14z"/>
<path d="M18660 7055 c-55 -32 -106 -55 -125 -55 -19 -1 -19 -1 -2 -11 27 -16
117 14 152 51 31 33 18 40 -25 15z"/>
<path d="M3641 6996 c-16 -17 -35 -26 -54 -26 -32 0 -122 -47 -151 -79 -18
-20 -18 -20 10 -18 28 2 29 1 26 -45 -3 -40 -1 -47 18 -53 51 -16 160 57 175
118 4 13 5 47 3 76 l-3 53 -24 -26z"/>
<path d="M18395 6968 c-59 -21 -78 -53 -22 -37 52 15 87 31 87 40 0 12 -27 10
-65 -3z"/>
<path d="M18173 6920 c-30 -12 -29 -30 1 -30 33 0 76 17 76 30 0 12 -47 12
-77 0z"/>
<path d="M15311 6881 c-12 -8 -9 -11 11 -16 32 -8 57 3 37 16 -18 11 -30 11
-48 0z"/>
<path d="M16842 6865 c-30 -7 -59 -18 -65 -24 -19 -19 63 -13 111 9 70 32 50
39 -46 15z"/>
<path d="M14545 6850 c-14 -6 -2 -9 40 -9 42 0 54 3 40 9 -11 5 -29 9 -40 9
-11 0 -29 -4 -40 -9z"/>
<path d="M16225 6850 c-15 -6 -7 -9 30 -9 37 0 45 3 30 9 -11 5 -24 9 -30 9
-5 0 -19 -4 -30 -9z"/>
<path d="M3084 6810 c-71 -38 -187 -114 -204 -135 -10 -12 -10 -19 -2 -27 24
-24 141 37 240 126 80 73 66 88 -34 36z"/>
<path d="M13680 6820 c-16 -5 6 -8 65 -8 59 0 81 3 65 8 -14 4 -43 8 -65 8
-22 0 -51 -4 -65 -8z"/>
<path d="M19340 6789 c-176 -81 -609 -113 -1530 -112 -628 0 -1945 28 -2260
48 l-75 4 48 -15 c51 -16 54 -34 7 -34 -17 0 -38 -9 -50 -22 -15 -16 -30 -22
-53 -20 -27 3 -35 -1 -44 -21 -7 -15 -26 -30 -47 -37 -30 -10 -42 -8 -81 9
-76 33 -395 99 -565 116 -60 5 -63 5 -46 -10 11 -8 24 -15 29 -15 23 0 157
-63 157 -75 0 -23 -140 -26 -587 -13 -623 18 -1335 16 -1653 -5 -475 -32 -765
-57 -825 -73 -134 -34 -298 -47 -835 -64 -723 -23 -1088 -42 -1245 -64 -111
-16 -1899 -13 -2200 3 -232 13 -422 14 -429 2 -3 -5 22 -22 57 -39 l62 -31
-51 0 c-27 -1 -59 -7 -70 -15 -17 -13 -18 -16 -3 -31 8 -9 49 -29 89 -46 72
-29 110 -53 110 -70 0 -16 -56 -37 -135 -50 -45 -7 -162 -13 -268 -13 -220 0
-222 -3 -25 -68 70 -23 128 -47 128 -52 0 -5 -90 -6 -222 -2 -123 3 -549 9
-948 12 -748 7 -1049 -1 -1279 -31 -63 -9 -208 -19 -322 -24 -201 -8 -235 -13
-224 -31 15 -24 -190 -50 -397 -50 -84 0 -148 -4 -148 -9 0 -33 214 -56 810
-86 426 -21 520 -29 520 -44 0 -4 -26 -14 -57 -22 l-58 -13 150 -8 c83 -4 179
-12 214 -19 62 -11 66 -11 79 10 17 24 58 27 207 11 50 -5 243 -14 430 -20
468 -15 515 -20 693 -80 81 -27 182 -55 225 -61 69 -10 82 -10 117 6 33 15 55
17 134 11 98 -7 126 -2 126 19 0 17 -23 25 -75 25 -54 0 -66 15 -23 29 94 30
218 34 898 28 377 -3 696 -9 709 -13 l25 -7 -24 -9 c-42 -15 -3 -36 93 -48 92
-13 369 -9 400 4 9 5 17 16 17 25 0 22 34 53 86 79 60 30 68 44 56 92 -5 21
-7 42 -4 45 18 18 184 -3 344 -44 71 -19 176 -30 488 -52 85 -6 205 -19 265
-29 243 -41 689 -59 1040 -41 476 25 570 26 620 7 51 -20 59 -36 18 -36 -46 0
-60 -16 -21 -23 133 -24 335 -32 828 -32 458 0 558 3 697 19 114 13 204 17
300 14 156 -5 462 -48 423 -59 -14 -4 -126 -8 -250 -8 -273 -2 -869 -18 -962
-27 -38 -3 -68 -10 -68 -14 0 -4 14 -13 30 -20 17 -7 30 -17 30 -22 0 -19 -60
1 -101 34 l-41 33 -142 -1 c-202 -1 -396 -31 -396 -60 0 -4 7 -15 16 -25 46
-51 5 -56 -474 -65 -402 -7 -683 5 -710 29 -26 24 -57 21 -89 -9 -27 -25 -27
-25 -5 -20 13 2 30 2 38 -1 49 -18 -29 -38 -216 -53 -208 -17 -753 -40 -948
-40 l-183 0 -27 30 c-23 25 -39 31 -104 41 -103 15 -227 -1 -278 -36 -25 -17
-59 -28 -111 -35 -83 -11 -274 -11 -364 -1 l-60 7 72 22 c40 13 75 27 78 32 3
5 -11 12 -32 16 -48 9 -390 -3 -471 -16 -69 -12 -142 -37 -142 -50 0 -5 22
-11 50 -15 27 -4 52 -10 55 -15 6 -9 -105 -20 -216 -20 -115 0 -240 -11 -234
-21 3 -4 28 -10 56 -14 27 -4 48 -9 46 -11 -14 -14 -253 -35 -492 -44 -262
-10 -335 -19 -271 -36 39 -9 31 -21 -19 -26 -25 -3 -52 -11 -61 -19 -34 -28
17 -29 233 -3 l218 26 365 -11 c698 -21 858 -16 1120 35 74 14 220 17 1155 24
1047 7 1080 8 1550 39 264 17 491 31 504 31 15 0 -14 -19 -78 -50 -169 -83
-253 -106 -551 -150 -295 -45 -374 -64 -342 -84 51 -31 691 -35 1117 -6 740
50 1244 52 1580 5 105 -14 252 -29 327 -32 122 -5 143 -4 195 15 91 32 130 34
330 12 424 -46 607 -72 723 -101 89 -22 230 -35 515 -49 260 -13 407 -25 600
-50 83 -11 211 -26 286 -35 171 -18 343 -51 629 -121 275 -67 358 -74 565 -49
279 34 424 11 760 -122 199 -78 269 -117 320 -177 23 -28 67 -80 96 -115 60
-71 79 -84 79 -51 0 25 -17 59 -74 148 -24 37 -57 95 -75 129 -38 76 -83 129
-116 137 -17 4 -25 13 -25 28 0 19 4 20 58 15 68 -6 197 -49 502 -164 124 -47
258 -94 299 -104 88 -22 170 -25 196 -5 19 14 18 16 -13 76 -18 35 -32 71 -32
81 0 31 -21 66 -46 78 -13 6 -72 20 -132 31 -174 34 -389 77 -516 105 -65 14
-166 29 -225 34 -106 9 -181 30 -181 52 0 8 37 10 143 5 523 -22 820 -17 851
14 29 29 -47 42 -389 65 -126 9 -376 29 -555 45 -179 16 -480 41 -670 55 -569
41 -982 85 -1121 117 -51 12 -41 13 141 16 299 5 901 -27 1084 -58 313 -52
952 -26 1266 51 179 45 213 87 179 225 l-11 44 -357 0 c-518 0 -924 21 -1231
64 -127 18 -113 18 235 1 347 -17 946 -19 1120 -5 385 33 553 105 584 251 48
224 47 261 -9 349 -70 109 -150 159 -310 196 -38 8 -79 23 -91 33 -34 27 -19
66 37 99 82 48 80 47 65 76 -8 14 -34 36 -59 47 -45 22 -48 22 -451 15 -248
-4 -402 -3 -396 3 12 11 128 31 182 31 24 0 50 7 64 19 64 50 209 103 435 160
114 28 203 44 437 76 59 8 117 20 130 27 19 11 5 14 -108 19 -159 8 -208 15
-260 42 -52 27 -131 26 -289 -2 -167 -30 -252 -37 -270 -22 -10 8 -12 24 -9
51 6 40 5 40 -28 40 -19 0 -54 -10 -79 -21z m-8240 -529 c34 -7 33 -7 -45 -33
-148 -47 -194 -52 -420 -48 -403 9 -508 7 -535 -8 -23 -13 -24 -15 -5 -22 11
-4 63 -8 116 -8 53 -1 125 -4 160 -8 60 -6 52 -8 -156 -34 -121 -15 -290 -40
-375 -54 -260 -45 -403 -44 -1030 4 -294 23 -535 43 -537 45 -2 1 86 8 194 15
521 31 1026 39 1278 20 78 -6 151 -9 160 -7 34 6 -10 36 -63 43 -106 13 -111
15 -114 38 -2 15 -11 23 -28 25 -43 6 -45 20 -4 29 57 12 623 8 803 -6 84 -7
172 -19 195 -27 22 -8 48 -18 57 -20 10 -4 28 7 46 26 16 18 45 35 64 40 36 8
180 3 239 -10z m3211 -730 c5 0 9 -4 9 -10 0 -13 -57 -13 -64 -1 -7 11 14 21
32 15 8 -2 18 -4 23 -4z m-176 -340 c813 -18 1183 -34 1885 -80 577 -39 938
-72 970 -90 20 -13 22 -13 -489 5 -240 8 -595 19 -790 25 -406 12 -595 25
-666 45 -127 36 -442 49 -1560 66 -739 10 -875 15 -875 30 0 12 969 11 1525
-1z"/>
<path d="M13095 6790 c-14 -6 0 -9 45 -9 45 0 59 3 45 9 -11 5 -31 9 -45 9
-14 0 -34 -4 -45 -9z"/>
<path d="M3122 6694 c-12 -8 -22 -21 -22 -29 0 -11 8 -10 35 6 35 21 46 39 22
39 -7 0 -23 -7 -35 -16z"/>
<path d="M3353 6694 c-82 -21 -255 -115 -240 -130 16 -16 211 65 277 116 34
26 24 30 -37 14z"/>
<path d="M3137 6404 c-11 -12 3 -24 29 -24 27 0 32 15 8 24 -20 8 -29 8 -37 0z"/>
<path d="M4350 6400 c-11 -7 1 -10 40 -9 40 0 49 3 35 9 -27 12 -57 12 -75 0z"/>
<path d="M3370 6367 c0 -21 37 -50 55 -44 21 9 19 23 -7 41 -28 20 -48 20 -48
3z"/>
<path d="M5290 6337 c0 -21 37 -50 55 -44 21 9 19 23 -7 41 -28 20 -48 20 -48
3z"/>
<path d="M4192 6334 c13 -12 116 -34 158 -33 l45 1 -55 18 c-50 17 -161 28
-148 14z"/>
<path d="M6170 6253 c-49 -6 -59 -21 -19 -27 126 -20 373 -16 352 5 -18 18
-241 33 -333 22z"/>
<path d="M5477 6194 c-11 -12 3 -24 29 -24 27 0 32 15 8 24 -20 8 -29 8 -37 0z"/>
<path d="M5941 6114 c-18 -7 -30 -18 -26 -24 9 -14 58 -13 73 2 28 28 0 42
-47 22z"/>
<path d="M4146 6101 c-7 -10 46 -31 80 -31 31 0 39 17 15 29 -24 13 -88 14
-95 2z"/>
<path d="M2597 5864 c-11 -12 3 -24 29 -24 27 0 32 15 8 24 -20 8 -29 8 -37 0z"/>
<path d="M2792 5861 c-19 -12 15 -19 48 -11 l25 6 -25 7 c-31 8 -32 8 -48 -2z"/>
<path d="M108 5799 c-32 -18 -21 -39 20 -39 29 0 45 -7 67 -30 29 -30 73 -45
116 -38 20 2 14 8 -33 31 -32 16 -58 33 -58 38 0 5 -9 18 -20 29 -21 21 -64
26 -92 9z"/>
<path d="M2445 5641 c-7 -12 34 -41 58 -41 10 0 17 5 15 12 -6 17 -66 40 -73
29z"/>
<path d="M167 5563 c-14 -14 -6 -42 13 -48 36 -12 140 22 140 45 0 11 -143 14
-153 3z"/>
<path d="M9352 5499 c-49 -19 -3 -53 97 -71 52 -10 63 -9 86 6 35 23 28 48
-15 63 -42 14 -136 16 -168 2z"/>
<path d="M17 5482 c-19 -20 -13 -32 14 -32 16 0 29 19 29 41 0 15 -26 10 -43
-9z"/>
<path d="M130 5447 c0 -27 61 -68 214 -143 160 -80 188 -88 178 -52 -4 18 -2
20 14 14 10 -4 40 -13 67 -19 34 -9 47 -17 47 -30 0 -34 127 -65 146 -36 11
18 -32 45 -146 90 -58 23 -127 53 -153 66 -27 13 -59 28 -73 33 -22 9 -24 8
-18 -15 9 -36 -18 -32 -64 9 -72 65 -212 120 -212 83z"/>
<path d="M2644 5435 c-4 -8 -3 -23 0 -32 6 -15 9 -15 28 4 21 22 18 43 -8 43
-8 0 -17 -7 -20 -15z"/>
<path d="M12072 5443 c-6 -2 -10 -9 -6 -14 7 -12 64 -12 64 1 0 6 -4 10 -9 10
-5 0 -15 2 -23 4 -7 3 -19 2 -26 -1z"/>
<path d="M11742 5413 c-6 -2 -10 -9 -6 -14 7 -12 64 -12 64 1 0 6 -4 10 -9 10
-5 0 -15 2 -23 4 -7 3 -19 2 -26 -1z"/>
<path d="M5105 5321 c-3 -5 -1 -12 3 -15 47 -29 98 -23 73 8 -15 17 -66 22
-76 7z"/>
<path d="M6227 5323 c-15 -14 -6 -23 23 -23 32 0 40 14 14 24 -20 8 -29 8 -37
-1z"/>
<path d="M5286 5310 c5 -5 41 -22 79 -37 46 -19 73 -36 80 -51 13 -30 63 -38
127 -21 55 15 77 39 35 39 -13 0 -41 13 -61 29 -25 20 -56 32 -99 40 -80 14
-175 15 -161 1z"/>
<path d="M6552 5309 c-29 -5 -63 -14 -74 -20 -21 -11 -21 -12 -2 -23 22 -13
417 -16 430 -3 34 33 -233 68 -354 46z"/>
<path d="M5717 5293 c-15 -14 -6 -23 23 -23 32 0 40 14 14 24 -20 8 -29 8 -37
-1z"/>
<path d="M7423 5290 c-23 -5 -54 -15 -70 -24 -26 -14 -27 -15 -8 -23 18 -7 64
-7 188 -1 29 2 47 8 47 15 0 29 -87 48 -157 33z"/>
<path d="M8075 5290 c-14 -6 -4 -9 35 -8 42 0 49 2 30 8 -32 10 -41 10 -65 0z"/>
<path d="M9102 5293 c-21 -8 -3 -23 29 -23 31 0 39 14 13 24 -18 7 -23 7 -42
-1z"/>
<path d="M5350 5226 c0 -23 31 -49 44 -36 7 7 8 15 0 28 -14 22 -44 28 -44 8z"/>
<path d="M3620 5219 c-25 -4 -90 -8 -145 -8 -55 -1 -106 -5 -114 -10 -18 -11
-7 -42 29 -80 32 -35 55 -41 47 -11 -7 26 11 39 66 46 32 5 54 2 78 -10 44
-22 49 -20 49 12 l1 27 18 -22 c11 -13 24 -23 29 -23 11 0 22 33 22 68 0 24
-5 25 -80 11z"/>
<path d="M3880 5195 c-16 -20 3 -45 35 -45 32 0 51 25 35 45 -7 8 -23 15 -35
15 -12 0 -28 -7 -35 -15z"/>
<path d="M6390 5181 c0 -11 3 -26 6 -35 7 -19 64 -31 101 -21 l28 7 -38 13
c-22 7 -49 23 -61 34 -28 26 -36 26 -36 2z"/>
<path d="M3742 5168 c-31 -31 -2 -108 41 -108 22 0 21 8 -3 45 -25 37 -25 42
0 50 11 4 18 11 15 16 -9 13 -39 11 -53 -3z"/>
<path d="M6150 5171 l-25 -7 29 -6 c17 -3 39 -2 50 2 12 5 16 9 9 9 -6 1 -17
3 -25 5 -7 2 -24 1 -38 -3z"/>
<path d="M5400 5140 c-183 -12 -237 -35 -176 -75 33 -22 131 -32 141 -15 5 8
0 20 -13 31 -30 24 -28 29 16 29 39 0 75 -18 72 -35 -5 -24 2 -36 30 -50 61
-32 217 -30 228 3 2 8 -11 12 -42 12 -31 0 -46 4 -46 13 0 20 21 37 46 37 12
0 27 7 35 16 18 22 -3 34 -61 34 -25 0 -61 2 -80 4 -19 2 -87 0 -150 -4z"/>
<path d="M2730 5120 c-8 -15 -17 -19 -35 -14 -18 4 -25 2 -25 -8 0 -37 71 -63
98 -36 13 13 92 -13 114 -39 12 -15 4 -15 -82 -9 -52 5 -114 15 -138 23 -89
30 -54 -21 50 -73 88 -45 138 -88 138 -123 l1 -26 29 35 29 35 38 -37 c47 -45
150 -106 342 -203 80 -40 166 -87 191 -103 32 -22 49 -28 61 -21 24 12 69 68
69 85 0 18 -97 81 -173 112 -40 16 -77 43 -120 85 -41 41 -107 88 -195 140
-74 44 -136 86 -139 94 -4 9 1 21 10 28 29 21 19 25 -58 25 -47 0 -90 6 -113
16 -81 35 -81 35 -92 14z m595 -408 c22 -14 35 -27 28 -29 -15 -5 -85 31 -104
53 -13 15 -12 16 11 9 14 -4 43 -19 65 -33z"/>
<path d="M6610 5130 c-13 -9 -13 -11 0 -20 25 -17 110 -40 189 -52 56 -8 80
-17 97 -34 39 -43 75 -25 54 26 -15 37 -80 65 -183 79 -96 13 -137 14 -157 1z"/>
<path d="M4736 5121 c-4 -6 3 -15 17 -20 39 -15 180 -24 207 -13 l25 10 -30
12 c-43 17 -210 26 -219 11z"/>
<path d="M3844 5107 c-8 -23 2 -47 20 -47 26 0 29 21 8 43 -19 19 -22 19 -28
4z"/>
<path d="M5779 5097 c-59 -39 -46 -97 22 -97 61 0 75 30 44 90 -19 36 -23 36
-66 7z"/>
<path d="M6055 5103 c-45 -11 -71 -55 -39 -67 24 -9 184 29 184 43 0 22 -91
37 -145 24z"/>
<path d="M7007 5053 c-15 -14 -6 -23 23 -23 32 0 40 14 14 24 -20 8 -29 8 -37
-1z"/>
<path d="M8777 4990 c-114 -10 -210 -35 -204 -53 9 -28 370 2 401 33 25 25
-47 33 -197 20z"/>
<path d="M10804 4949 c-17 -5 -37 -15 -43 -23 -10 -12 -8 -18 12 -31 23 -15
31 -15 92 0 36 8 76 20 87 26 21 11 21 12 3 25 -21 16 -103 17 -151 3z"/>
<path d="M9432 4903 c-6 -2 -10 -9 -6 -14 7 -12 64 -12 64 1 0 6 -4 10 -9 10
-5 0 -15 2 -23 4 -7 3 -19 2 -26 -1z"/>
<path d="M3790 4860 c0 -5 35 -34 78 -64 42 -30 88 -66 101 -80 23 -24 61 -36
61 -18 0 15 -75 81 -145 126 -68 45 -95 55 -95 36z"/>
<path d="M2775 4779 c-9 -14 24 -49 47 -49 24 0 34 26 18 45 -14 17 -56 20
-65 4z"/>
<path d="M10062 4723 c-6 -2 -10 -9 -6 -14 7 -12 64 -12 64 1 0 6 -4 10 -9 10
-5 0 -15 2 -23 4 -7 3 -19 2 -26 -1z"/>
<path d="M4095 4661 c-6 -11 33 -41 53 -41 12 0 12 3 2 16 -20 23 -48 36 -55
25z"/>
<path d="M2320 4651 c0 -5 7 -14 15 -21 22 -18 19 -30 -17 -67 l-31 -32 37 6
c29 4 41 1 59 -15 26 -25 87 -41 87 -23 0 6 -6 11 -14 11 -8 0 -24 9 -37 20
-21 17 -22 21 -9 29 8 6 32 8 53 4 54 -8 47 12 -15 43 -67 34 -128 55 -128 45z"/>
<path d="M3190 4604 c0 -25 41 -110 74 -153 27 -37 33 -65 15 -76 -5 -4 -32
14 -59 39 -46 43 -82 57 -94 37 -12 -19 8 -42 70 -81 116 -73 69 -66 -109 16
-65 31 -122 52 -125 49 -11 -10 47 -55 79 -62 33 -6 54 -27 44 -43 -4 -6 -15
-8 -25 -5 -12 4 -27 -2 -39 -14 -24 -24 -69 -37 -178 -52 -45 -7 -80 -15 -77
-20 5 -8 92 -42 135 -52 21 -5 37 2 81 36 30 23 76 53 101 67 41 22 49 23 57
10 17 -27 11 -59 -16 -76 -33 -22 -54 -64 -54 -108 0 -50 41 -81 128 -96 100
-18 170 -10 195 24 16 23 54 38 45 18 -1 -4 -15 -32 -30 -62 -29 -61 -43 -137
-29 -160 8 -12 13 -12 30 4 11 10 23 26 26 36 6 19 46 40 75 40 29 0 25 11
-15 43 -19 15 -35 33 -35 39 0 19 72 0 100 -27 14 -14 36 -25 47 -25 44 0 69
54 38 80 -19 16 -37 3 -30 -21 4 -10 4 -19 0 -19 -14 0 -82 40 -96 56 -13 16
-9 16 47 12 68 -5 161 -45 300 -129 120 -72 256 -134 358 -162 104 -30 203
-92 334 -211 45 -42 100 -85 122 -96 26 -13 52 -39 75 -75 22 -36 54 -67 88
-89 63 -40 81 -60 73 -81 -9 -23 -42 -18 -60 10 -20 31 -61 33 -78 5 -15 -24
-43 -25 -92 -5 -20 9 -74 20 -119 26 -45 6 -92 17 -104 25 -31 20 -31 62 1 74
70 26 32 59 -68 57 -78 -1 -96 5 -96 32 0 12 -22 27 -75 50 -43 19 -104 58
-144 91 -80 68 -119 90 -158 90 -15 0 -53 15 -83 34 -73 45 -131 59 -229 55
-59 -3 -85 -9 -98 -21 -16 -17 -16 -19 8 -44 30 -32 97 -67 172 -89 35 -10 64
-26 76 -41 11 -14 35 -29 53 -35 34 -9 58 -23 142 -84 57 -41 73 -43 85 -11
11 27 29 36 77 36 40 0 43 -12 9 -34 -34 -22 -31 -49 8 -78 44 -34 278 -171
537 -316 118 -66 286 -162 372 -215 166 -100 245 -136 315 -142 51 -4 63 -11
63 -34 0 -26 49 -67 108 -90 29 -12 55 -21 58 -21 3 0 3 14 -1 31 -14 63 48
60 139 -7 33 -24 76 -46 95 -50 52 -8 83 -23 78 -37 -2 -6 -16 -11 -31 -9 -40
4 -33 -23 16 -58 52 -38 60 -38 56 2 -2 18 2 33 9 35 7 3 54 -35 103 -82 l91
-87 49 6 c53 7 90 -5 90 -29 0 -10 -9 -12 -37 -8 -36 5 -37 4 -22 -12 9 -9 32
-20 50 -24 26 -5 35 -13 41 -38 9 -36 160 -199 268 -288 41 -34 65 -61 57 -63
-12 -2 -103 16 -217 43 -44 11 68 -84 189 -158 60 -38 140 -95 177 -128 37
-32 74 -59 82 -59 45 0 375 -199 470 -283 29 -26 60 -47 68 -47 21 0 115 -66
194 -135 36 -32 83 -70 104 -86 39 -29 89 -38 101 -19 10 16 52 12 59 -6 11
-30 6 -57 -20 -102 l-27 -45 24 7 c79 22 75 23 120 -37 22 -29 49 -36 49 -13
0 7 -7 33 -16 57 -11 32 -14 61 -9 105 l6 62 -44 -5 c-32 -4 -48 -1 -60 12
-21 20 -21 53 -2 79 21 28 19 30 -20 45 -48 17 -141 109 -126 124 16 16 111
-16 195 -66 52 -31 115 -54 250 -93 100 -28 201 -60 226 -70 65 -26 151 -78
179 -108 l25 -26 -49 2 c-31 2 -49 -1 -52 -9 -6 -16 95 -113 117 -113 9 0 33
18 53 41 42 47 41 47 159 -12 43 -22 84 -39 93 -39 37 0 5 34 -88 95 -75 49
-109 99 -115 171 -4 51 -3 54 19 54 14 0 55 -25 99 -60 73 -59 84 -64 126 -61
11 1 42 -7 68 -19 55 -23 86 -26 86 -7 0 8 -16 36 -35 63 -19 27 -35 59 -35
70 0 21 53 77 81 86 20 7 0 33 -161 207 -78 85 -149 170 -158 189 -16 32 -16
35 3 48 18 14 18 14 -3 14 -38 0 -86 25 -141 74 -100 89 -212 143 -258 125
-35 -13 -76 11 -259 153 -240 184 -583 439 -929 688 -170 123 -404 292 -520
375 -534 385 -942 625 -1156 680 -114 30 -199 87 -199 134 0 33 -111 116 -170
128 -27 5 -30 3 -30 -21 0 -24 -4 -27 -27 -24 -20 2 -28 9 -28 23 0 13 -8 21
-24 23 l-23 4 26 27 27 28 -50 -5 c-48 -4 -51 -3 -61 23 -10 27 -12 27 -66 21
l-55 -6 32 45 c18 25 29 48 25 52 -3 4 -25 9 -49 12 -34 5 -43 10 -45 28 -2
15 -13 25 -28 29 -35 9 -41 -2 -21 -35 36 -61 18 -80 -44 -47 -24 13 -75 33
-114 45 -82 24 -112 43 -117 73 -2 16 -14 24 -48 32 -25 7 -82 32 -125 58 -44
25 -111 61 -150 81 -78 39 -122 79 -127 117 -2 21 -9 25 -42 28 -24 2 -52 13
-69 28 -16 13 -35 24 -43 24 -66 0 126 -169 281 -248 33 -16 73 -42 89 -57 29
-26 29 -28 11 -41 -24 -17 -101 -18 -112 -1 -4 6 -6 19 -5 27 1 8 -10 21 -26
27 -15 7 -57 38 -92 68 -130 111 -227 142 -344 112 l-49 -13 62 -49 c68 -53
77 -82 31 -98 -28 -10 -57 0 -155 58 -33 19 -70 35 -82 35 -14 0 -44 20 -74
50 -28 28 -59 50 -69 50 -9 0 -34 14 -55 30 -26 21 -49 30 -73 30 -20 0 -44 7
-54 17 -17 15 -18 15 -18 -3z m165 -135 c20 -18 40 -40 46 -50 18 -34 -21 -22
-62 20 -62 61 -48 86 16 30z m166 -156 c10 -30 14 -55 9 -58 -15 -9 -50 14
-50 34 0 9 -11 28 -25 41 -34 32 -31 42 12 38 34 -3 37 -6 54 -55z m580 -15
c9 -7 23 -25 32 -40 10 -16 31 -31 50 -36 25 -6 32 -14 32 -33 0 -18 -7 -26
-32 -33 -23 -7 -33 -17 -37 -38 -3 -15 -11 -28 -18 -28 -7 0 -36 -12 -65 -26
-54 -28 -103 -27 -103 1 0 8 20 37 46 66 25 28 43 56 41 62 -2 7 -34 14 -73
17 -67 5 -154 39 -154 60 0 5 18 15 40 21 31 9 52 9 97 -1 114 -24 112 -24
106 -1 -6 24 14 29 38 9z m-669 -39 c22 -29 37 -109 21 -109 -6 0 -32 9 -58
21 -25 11 -49 18 -52 15 -4 -3 2 -21 12 -40 30 -55 18 -66 -74 -66 -85 0 -177
15 -187 31 -10 17 15 36 55 42 22 3 60 20 85 38 154 112 163 115 198 68z m246
-55 c3 -27 -13 -48 -32 -41 -19 7 -21 38 -4 55 16 16 32 10 36 -14z m765 0
c111 -57 216 -142 202 -164 -15 -23 -141 44 -232 123 -48 42 -57 46 -76 36
-22 -12 -22 -12 -3 10 25 28 46 27 109 -5z m-513 -110 c0 -7 -5 -16 -10 -19
-12 -7 -41 55 -33 69 7 11 43 -31 43 -50z m427 -4 c71 -31 93 -60 93 -122 0
-67 -10 -83 -44 -74 -33 8 -33 30 -1 68 20 23 23 33 15 49 -6 10 -12 19 -14
19 -2 0 -17 -13 -34 -29 -50 -49 -150 -53 -220 -11 -46 28 -40 47 21 74 30 13
57 31 61 41 7 21 55 15 123 -15z m-567 -24 c10 -13 10 -16 -2 -16 -20 0 -59
30 -53 41 7 11 35 -2 55 -25z m1050 -8 c-3 -38 -1 -48 13 -48 6 0 35 -18 62
-40 173 -137 150 -125 239 -125 66 0 80 -3 78 -15 -2 -8 -8 -66 -14 -130 -6
-63 -17 -121 -24 -129 -10 -11 -19 -11 -55 0 -45 15 -63 37 -74 94 -4 19 -29
51 -71 91 -35 33 -64 63 -64 67 0 4 16 7 35 7 23 0 35 5 35 14 0 21 -34 32
-201 66 -31 6 -65 18 -75 26 -18 14 -18 15 4 30 15 12 22 27 22 50 0 37 29 64
68 64 18 0 23 -5 22 -22z m-195 -132 c50 -24 118 -65 152 -90 34 -25 98 -63
141 -85 87 -44 119 -71 83 -71 -33 0 -137 45 -189 83 -26 18 -87 55 -137 82
-99 53 -175 104 -175 117 0 17 37 6 125 -36z m405 -796 c91 -62 142 -114 138
-142 -4 -32 -44 -34 -149 -9 -46 10 -87 17 -91 15 -5 -3 -8 -16 -8 -30 l0 -25
-40 22 c-46 26 -107 86 -97 96 4 3 52 -1 106 -9 107 -18 141 -15 141 11 0 43
-66 83 -85 51 -9 -14 -75 -12 -105 3 -28 14 -34 50 -9 55 9 2 30 -9 47 -23 16
-14 35 -25 41 -25 14 0 29 32 23 49 -7 20 16 10 88 -39z m-314 18 c-10 -6 -29
-7 -44 -3 -24 7 -25 8 -8 14 11 4 31 5 44 3 21 -4 22 -6 8 -14z m686 -291 c59
-37 94 -79 83 -97 -10 -16 -18 -13 -96 38 -90 59 -151 111 -144 123 8 12 90
-21 157 -64z m-307 32 c7 -11 -22 -49 -37 -49 -13 0 -9 48 5 53 19 8 25 8 32
-4z m102 -65 c33 -33 19 -53 -26 -34 -36 15 -55 35 -46 50 11 18 45 11 72 -16z
m356 -138 c9 -28 2 -76 -12 -76 -11 0 -31 47 -31 74 0 45 28 47 43 2z m2824
-1542 c-7 -8 -87 -7 -95 0 -3 3 19 6 48 6 29 0 51 -3 47 -6z"/>
<path d="M4294 4025 c-9 -23 3 -45 25 -45 23 0 35 28 20 46 -15 18 -38 18 -45
-1z"/>
<path d="M5094 3745 c30 -24 74 -40 83 -31 3 3 3 12 -1 21 -7 18 -47 35 -84
35 l-27 -1 29 -24z"/>
<path d="M2895 4599 c-9 -14 24 -49 47 -49 24 0 34 26 18 45 -14 17 -56 20
-65 4z"/>
<path d="M532 4573 c-19 -7 -4 -23 24 -23 27 0 32 15 8 24 -9 3 -16 6 -17 5
-1 0 -8 -3 -15 -6z"/>
<path d="M4246 4561 c-8 -12 32 -41 56 -41 36 0 19 18 -44 47 -4 2 -9 -1 -12
-6z"/>
<path d="M3020 4545 c-17 -20 -5 -62 20 -70 28 -9 40 2 40 34 0 45 -35 66 -60
36z"/>
<path d="M2533 4513 c-15 -5 -17 -39 -4 -47 12 -8 44 31 36 43 -7 12 -13 12
-32 4z"/>
<path d="M2603 4453 c-24 -9 -13 -23 17 -23 32 0 40 14 14 24 -9 3 -16 6 -17
5 -1 0 -8 -3 -14 -6z"/>
<path d="M4276 4441 c-8 -12 32 -41 56 -41 36 0 19 18 -44 47 -4 2 -9 -1 -12
-6z"/>
<path d="M2201 4403 c16 -19 164 -91 206 -99 20 -4 33 -1 42 10 22 26 6 46
-37 46 -21 0 -60 7 -85 15 -26 8 -68 22 -93 30 -43 14 -45 14 -33 -2z"/>
<path d="M2601 4331 c-8 -14 -6 -22 8 -35 23 -21 44 -20 66 4 25 28 13 50 -29
50 -24 0 -38 -6 -45 -19z"/>
<path d="M2620 4183 c0 -5 14 -17 31 -27 17 -10 46 -32 65 -48 27 -24 51 -33
121 -45 49 -8 94 -20 101 -26 9 -7 20 -5 40 10 44 33 40 49 -15 56 -26 3 -98
21 -159 41 -128 40 -184 52 -184 39z"/>
<path d="M3065 3970 c-16 -25 39 -58 193 -116 56 -21 64 -22 69 -7 8 21 -17
39 -65 47 -20 3 -66 24 -102 46 -68 42 -85 47 -95 30z"/>
<path d="M3670 3910 c0 -10 71 -50 90 -50 24 0 7 20 -33 39 -49 24 -57 25 -57
11z"/>
<path d="M3490 3846 c0 -23 31 -49 44 -36 7 7 8 15 0 28 -14 22 -44 28 -44 8z"/>
<path d="M3939 3790 c37 -32 142 -90 162 -90 23 0 -42 58 -101 89 -76 41 -108
41 -61 1z"/>
<path d="M4174 3689 c-9 -16 29 -63 55 -67 25 -4 27 6 5 36 -20 30 -51 45 -60
31z"/>
<path d="M4322 3565 c-37 -16 -42 -35 -9 -35 25 0 64 34 50 43 -4 3 -23 -1
-41 -8z"/>
<path d="M4515 3490 c-7 -11 12 -50 24 -50 15 0 43 39 36 49 -8 14 -52 14 -60
1z"/>
<path d="M4654 3337 c-8 -23 2 -47 20 -47 26 0 29 21 8 43 -19 19 -22 19 -28
4z"/>
<path d="M4433 2563 c-24 -8 -13 -23 17 -23 17 0 30 4 30 9 0 11 -30 19 -47
14z"/>
<path d="M4643 2413 c-24 -8 -13 -23 17 -23 17 0 30 4 30 9 0 11 -30 19 -47
14z"/>
<path d="M4727 2346 c19 -32 192 -169 249 -196 53 -26 99 -60 80 -60 -17 0 19
-42 58 -70 61 -41 66 -38 17 15 -31 34 -41 53 -41 79 0 27 -5 35 -23 40 -13 3
-66 36 -118 73 -161 114 -245 160 -222 119z"/>
<path d="M5265 1901 c-6 -11 33 -41 53 -41 12 0 12 3 2 16 -20 23 -48 36 -55
25z"/>
<path d="M5460 1745 c0 -19 25 -44 86 -85 82 -55 199 -158 399 -347 105 -100
191 -180 193 -178 2 2 -9 23 -23 47 -65 104 -590 578 -641 578 -8 0 -14 -7
-14 -15z"/>
<path d="M6278 1244 c-14 -14 -8 -25 43 -80 59 -61 79 -60 79 7 0 30 -6 42
-24 54 -28 19 -88 30 -98 19z"/>
<path d="M9490 1138 c0 -24 40 -68 61 -68 33 0 20 21 -43 69 -15 11 -18 11
-18 -1z"/>
<path d="M9215 1063 c-69 -28 -100 -55 -92 -77 12 -31 54 -18 111 35 51 47 68
70 49 68 -5 0 -35 -12 -68 -26z"/>
<path d="M8983 883 c-14 -5 -18 -53 -5 -53 15 0 44 38 37 49 -7 12 -13 12 -32
4z"/>
<path d="M7753 793 c-14 -5 -18 -53 -5 -53 15 0 44 38 37 49 -7 12 -13 12 -32
4z"/>
<path d="M8043 683 c3 -10 12 -52 21 -93 9 -41 25 -90 36 -108 17 -27 26 -32
58 -32 25 0 43 -7 55 -20 41 -48 49 -12 13 58 -57 112 -203 267 -183 195z"/>
<path d="M6900 116 c0 -19 62 -109 79 -114 19 -6 5 33 -31 86 -29 42 -48 54
-48 28z"/>
</g>
</svg>
