<?xml version="1.0" standalone="no"?>
<!DOCTYPE svg PUBLIC "-//W3C//DTD SVG 20010904//EN"
 "http://www.w3.org/TR/2001/REC-SVG-20010904/DTD/svg10.dtd">
<svg version="1.0" xmlns="http://www.w3.org/2000/svg"
 width="512.000000pt" height="512.000000pt" viewBox="0 0 512.000000 512.000000"
 preserveAspectRatio="xMidYMid meet">

<g transform="translate(0.000000,512.000000) scale(0.100000,-0.100000)"
fill="hsl(41, 67%, 94%)" stroke="none">
<path d="M2513 5107 c-25 -14 -121 -121 -208 -232 -123 -158 -297 -448 -279
-464 5 -4 47 -33 94 -63 173 -111 323 -250 401 -370 l38 -59 41 61 c84 123
231 259 390 361 129 83 121 63 66 165 -95 175 -224 360 -366 519 -67 76 -92
94 -130 94 -14 0 -35 -5 -47 -12z"/>
<path d="M1605 4931 c-46 -11 -81 -38 -99 -76 -63 -132 74 -265 204 -197 49
26 84 97 75 153 -8 48 -54 104 -93 113 -15 4 -34 8 -42 10 -8 2 -29 1 -45 -3z"/>
<path d="M3438 4928 c-84 -22 -126 -118 -89 -202 63 -143 281 -97 281 59 0
102 -90 169 -192 143z"/>
<path d="M754 4366 l-37 -37 7 -107 c15 -228 54 -453 113 -646 l27 -88 30 6
c17 3 72 15 121 26 124 29 411 38 510 17 39 -8 71 -14 72 -13 1 1 -5 33 -14
71 -23 111 -13 375 21 534 15 68 26 124 24 126 -2 2 -39 14 -83 28 -180 56
-425 99 -642 113 l-112 7 -37 -37z"/>
<path d="M4160 4393 c-101 -8 -282 -35 -390 -59 -99 -23 -269 -70 -278 -79 -2
-2 9 -58 24 -126 34 -158 44 -411 21 -529 -8 -41 -14 -76 -14 -76 1 -1 34 5
72 13 108 23 385 12 535 -21 63 -14 118 -26 121 -26 8 0 64 192 89 305 24 111
46 285 56 427 l7 107 -36 36 c-33 33 -38 35 -98 33 -35 -1 -84 -3 -109 -5z"/>
<path d="M1901 4083 c-38 -145 -42 -340 -11 -470 49 -205 178 -364 373 -459
68 -33 66 -35 100 71 18 58 22 92 21 200 0 113 -4 141 -27 210 -37 112 -89
196 -177 284 -70 70 -213 181 -252 196 -13 5 -19 -2 -27 -32z"/>
<path d="M3135 4079 c-171 -116 -271 -222 -335 -354 -54 -113 -74 -213 -67
-339 5 -93 31 -206 56 -246 22 -33 218 92 303 193 104 125 158 289 158 479 0
131 -28 309 -48 308 -4 0 -34 -19 -67 -41z"/>
<path d="M262 3613 c-55 -27 -88 -97 -76 -161 10 -51 70 -108 122 -117 57 -9
128 25 154 75 68 131 -67 269 -200 203z"/>
<path d="M4715 3611 c-53 -33 -69 -58 -72 -119 -5 -74 19 -115 83 -144 80 -35
160 -3 196 79 22 49 18 88 -13 139 -37 60 -134 83 -194 45z"/>
<path d="M1175 3245 c-5 -1 -42 -8 -80 -14 -105 -18 -105 -18 -52 -97 102
-154 223 -271 337 -329 101 -51 187 -70 320 -70 102 0 138 4 195 22 108 35
106 31 63 116 -129 251 -349 378 -653 376 -66 0 -124 -2 -130 -4z"/>
<path d="M3608 3230 c-202 -51 -361 -181 -454 -373 -33 -67 -34 -66 66 -98 94
-30 246 -36 346 -14 158 35 293 117 404 248 71 84 155 206 147 214 -18 18
-141 35 -277 39 -131 3 -167 1 -232 -16z"/>
<path d="M588 3041 c-138 -77 -264 -162 -385 -261 -188 -152 -214 -184 -199
-245 18 -70 367 -340 610 -471 102 -55 82 -63 165 66 103 162 257 326 367 393
30 18 53 34 53 37 0 3 -25 21 -56 40 -120 76 -260 227 -376 408 -33 50 -63 92
-66 92 -4 0 -54 -27 -113 -59z"/>
<path d="M4353 3008 c-116 -180 -253 -330 -375 -409 l-59 -38 61 -41 c128 -87
272 -244 373 -408 28 -46 54 -85 59 -88 24 -15 344 184 503 314 191 155 216
186 200 249 -10 43 -209 214 -386 334 -85 57 -296 179 -310 179 -3 0 -33 -42
-66 -92z"/>
<path d="M2520 2780 c-178 -33 -245 -259 -113 -381 45 -42 87 -59 148 -59 134
0 224 89 225 223 0 139 -124 243 -260 217z"/>
<path d="M1535 2372 c-151 -39 -282 -122 -386 -246 -76 -89 -154 -204 -146
-212 17 -17 137 -36 263 -41 165 -7 254 8 372 63 142 65 245 166 320 311 43
85 45 81 -58 114 -93 30 -270 35 -365 11z"/>
<path d="M3275 2375 c-73 -16 -145 -44 -145 -56 0 -18 53 -115 97 -177 87
-123 229 -215 391 -253 75 -18 107 -21 232 -16 128 5 250 23 267 40 7 8 -75
129 -141 207 -152 179 -344 271 -558 269 -46 0 -110 -7 -143 -14z"/>
<path d="M2244 1956 c-252 -135 -374 -346 -374 -646 0 -110 21 -270 40 -300
12 -20 157 79 249 171 157 155 230 317 231 510 0 122 -43 299 -73 299 -7 0
-40 -15 -73 -34z"/>
<path d="M2776 1949 c-66 -165 -59 -378 18 -544 44 -94 111 -180 199 -255 84
-71 206 -155 214 -147 16 17 35 137 40 257 4 106 2 154 -11 220 -34 168 -131
323 -258 413 -62 44 -159 97 -177 97 -5 0 -16 -19 -25 -41z"/>
<path d="M281 1777 c-19 -7 -48 -29 -64 -50 -78 -96 -6 -237 120 -237 150 0
197 209 63 278 -49 25 -70 26 -119 9z"/>
<path d="M4723 1771 c-138 -64 -92 -281 60 -281 79 0 137 50 152 130 7 42 -26
114 -65 142 -40 28 -98 32 -147 9z"/>
<path d="M837 1544 c-60 -197 -100 -426 -113 -641 l-7 -112 37 -37 37 -37 107
7 c230 15 420 48 626 108 l108 31 -6 31 c-3 17 -15 72 -26 121 -29 124 -38
411 -17 510 8 39 14 71 13 72 0 0 -35 -6 -76 -14 -106 -21 -381 -12 -505 17
-49 11 -104 23 -121 26 l-30 6 -27 -88z"/>
<path d="M4120 1603 c-139 -32 -407 -42 -520 -20 -41 8 -76 14 -76 14 -1 -1 5
-33 13 -72 21 -99 12 -386 -17 -510 -11 -49 -23 -104 -26 -121 l-6 -31 108
-31 c206 -60 396 -93 626 -108 l107 -7 37 37 37 37 -7 112 c-13 215 -53 444
-113 640 -19 64 -30 87 -42 86 -9 -1 -63 -12 -121 -26z"/>
<path d="M2523 1146 c-69 -113 -229 -262 -403 -374 -47 -30 -89 -59 -94 -63
-21 -19 175 -336 312 -504 155 -191 186 -216 249 -200 68 17 334 362 463 600
28 52 49 99 46 103 -3 5 -42 31 -88 59 -164 101 -321 245 -408 373 -22 33 -42
60 -43 60 -1 0 -16 -24 -34 -54z"/>
<path d="M1562 460 c-66 -41 -90 -124 -56 -195 58 -122 256 -92 279 42 20 123
-117 218 -223 153z"/>
<path d="M3402 460 c-45 -28 -76 -97 -67 -151 18 -107 143 -157 237 -95 56 37
75 133 38 194 -43 69 -139 94 -208 52z"/>
</g>
</svg>
