<?xml version="1.0" standalone="no"?>
<!DOCTYPE svg PUBLIC "-//W3C//DTD SVG 20010904//EN"
 "http://www.w3.org/TR/2001/REC-SVG-20010904/DTD/svg10.dtd">
<svg version="1.0" xmlns="http://www.w3.org/2000/svg"
 width="2040.000000pt" height="1082.000000pt" viewBox="0 0 2040.000000 1082.000000"
 preserveAspectRatio="xMidYMid meet">

<g transform="translate(0.000000,1082.000000) scale(0.100000,-0.100000)"
fill="#fff" stroke="none">
<path d="M12643 10808 c-6 -7 -13 -25 -17 -40 -3 -15 -28 -46 -56 -69 -44 -37
-50 -47 -50 -80 0 -42 33 -154 62 -214 11 -22 55 -76 98 -120 111 -114 170
-191 170 -221 0 -14 -10 -39 -21 -56 l-21 -29 35 6 c27 5 43 1 77 -20 90 -57
408 -387 436 -453 6 -15 30 -56 53 -91 33 -52 41 -73 41 -111 0 -29 6 -52 14
-59 17 -14 29 0 20 23 -4 10 -1 16 7 16 21 0 232 -223 285 -301 78 -116 444
-420 584 -486 50 -24 59 -31 55 -49 -4 -18 1 -23 29 -28 51 -10 116 -61 116
-91 0 -21 5 -25 31 -25 37 0 48 -6 174 -89 55 -37 119 -78 143 -91 43 -24 54
-40 27 -40 -21 0 -19 -12 6 -44 20 -25 26 -27 68 -21 57 8 107 -16 302 -142
254 -165 319 -200 319 -174 0 17 -62 61 -86 61 -24 0 -24 1 -8 25 23 35 12 67
-34 99 -21 14 -52 40 -67 56 -27 28 -28 31 -12 47 15 15 15 18 0 44 -10 16
-14 31 -11 35 10 9 73 -14 173 -64 126 -62 207 -117 299 -201 45 -41 92 -75
108 -78 l28 -6 -34 -33 c-35 -34 -54 -88 -42 -119 3 -9 18 -15 41 -15 20 0 47
-7 60 -16 20 -13 28 -14 39 -4 8 6 13 17 10 25 -7 18 -57 37 -86 34 -29 -4
-33 0 -24 29 11 34 53 28 151 -22 48 -25 92 -43 100 -40 7 3 29 -6 50 -20 39
-27 69 -33 80 -16 8 13 -89 88 -150 115 -50 22 -206 132 -220 156 -6 9 -1 10
17 6 56 -15 42 19 -50 117 -59 63 -122 169 -109 183 3 3 20 -11 37 -31 18 -20
46 -43 64 -51 17 -8 87 -60 155 -115 406 -329 787 -600 846 -600 42 0 -22 76
-76 90 -42 12 -143 99 -123 107 17 6 161 -35 192 -54 121 -76 272 -217 298
-278 10 -24 22 -36 42 -40 65 -14 103 -30 134 -56 l33 -28 -45 -1 c-50 0 -151
45 -217 98 -48 38 -122 76 -130 68 -17 -16 141 -146 177 -146 9 0 43 -22 74
-50 64 -56 78 -59 161 -30 61 21 83 16 71 -15 -4 -11 -12 -14 -26 -10 -24 7
-27 -10 -4 -19 9 -3 39 -6 69 -6 35 0 57 -5 65 -15 29 -35 -5 -36 -201 -6
-106 17 -194 29 -196 27 -6 -5 227 -171 343 -243 140 -88 184 -127 184 -162 0
-59 138 -191 199 -191 39 0 143 -53 185 -94 28 -29 36 -45 36 -73 l0 -36 -22
20 c-13 11 -42 30 -65 42 -48 24 -50 27 -26 53 15 17 14 18 -18 18 -356 5
-325 -2 -499 110 -117 75 -223 130 -252 130 -54 0 12 -64 124 -121 31 -15 81
-51 113 -78 61 -54 281 -170 378 -200 41 -12 62 -25 70 -42 9 -17 24 -26 57
-31 46 -8 130 -54 138 -75 2 -9 -11 -13 -48 -13 -57 0 -65 -17 -16 -35 22 -8
39 -3 99 28 84 43 94 45 93 15 -1 -14 11 -30 34 -45 19 -13 47 -35 63 -49 56
-53 26 -64 -101 -35 -132 29 -210 41 -228 34 -13 -5 -12 -8 3 -25 16 -18 84
-58 97 -58 3 0 5 10 3 23 -2 18 2 22 26 20 102 -7 64 -93 -71 -162 -109 -56
-123 -83 -18 -35 32 14 60 23 64 19 13 -13 -97 -103 -172 -140 -76 -37 -101
-63 -48 -50 15 3 63 22 107 42 89 39 186 63 257 63 98 0 46 -41 -57 -46 -56
-2 -61 -4 -75 -34 -21 -41 -66 -70 -112 -70 -45 0 -68 -8 -68 -25 0 -15 -22
-25 -54 -25 -41 0 -63 -44 -58 -112 3 -26 16 -22 65 21 62 53 281 142 309 125
12 -8 -29 -58 -83 -99 -55 -42 -84 -42 -73 1 6 22 4 25 -12 22 -14 -2 -20 -14
-24 -43 -4 -30 -11 -43 -31 -52 -47 -22 -287 -32 -629 -26 -278 5 -332 4 -328
-7 9 -28 68 -34 343 -35 357 -2 367 -2 391 -19 18 -14 18 -16 2 -44 -23 -39
-23 -42 5 -42 36 0 67 -27 67 -60 0 -53 -85 -94 -150 -72 -37 13 -38 8 -2 -23
l27 -24 -34 -1 -34 0 23 -25 c22 -24 23 -26 7 -42 -9 -9 -65 -46 -124 -83 -58
-36 -108 -70 -110 -77 -2 -6 13 -17 34 -23 55 -18 57 -23 18 -60 -39 -38 -43
-55 -16 -69 31 -17 82 4 344 137 273 140 231 128 422 121 56 -1 80 3 120 22
l50 24 -127 3 c-99 2 -128 6 -128 16 0 21 22 35 164 109 129 67 130 68 81 63
-27 -3 -84 -8 -125 -11 l-75 -6 24 19 c35 28 88 42 161 42 51 0 61 3 56 15 -7
20 24 35 74 35 54 0 80 -14 73 -40 -8 -29 19 -26 56 6 38 32 98 42 126 21 20
-15 20 -15 0 -37 -11 -13 -57 -40 -102 -62 -79 -38 -108 -58 -83 -58 23 0 163
51 218 80 82 42 147 54 277 51 l50 -2 -35 -29 c-32 -28 -34 -31 -17 -44 9 -7
17 -18 17 -24 0 -6 -46 -25 -102 -42 -118 -37 -176 -64 -198 -91 -32 -41 -240
-97 -319 -87 -33 4 -50 -42 -27 -77 20 -31 89 -40 239 -31 157 10 248 24 272
42 11 8 48 33 83 55 106 70 73 78 -88 24 -57 -19 -110 -35 -117 -35 -27 0 -12
20 35 46 53 30 148 93 240 160 34 25 124 78 200 118 145 76 166 99 98 104 -29
3 -48 -3 -70 -19 -33 -25 -116 -33 -123 -13 -10 30 314 193 383 194 20 0 42
10 60 27 16 15 75 48 132 75 101 47 122 69 74 76 -30 5 -28 12 13 45 37 29 45
47 21 47 -22 0 -30 19 -27 68 2 37 -1 44 -18 49 -12 3 -21 9 -21 13 0 13 78
40 137 46 61 7 99 21 88 32 -3 4 -42 9 -86 13 -131 9 -137 49 -7 53 57 2 84 8
118 27 60 34 72 55 41 80 -13 10 -37 19 -53 19 -44 0 -64 15 -103 75 -23 37
-39 53 -49 49 -25 -10 -66 40 -66 80 0 43 -19 55 -95 63 -48 5 -56 3 -79 -20
-48 -48 -97 -62 -113 -32 -11 19 -44 20 -230 10 -151 -8 -152 -8 -205 18 -55
27 -198 160 -198 184 0 7 9 13 19 13 59 0 12 56 -130 155 -227 158 -307 216
-320 231 -7 9 -36 26 -64 38 -27 13 -109 72 -181 132 -208 172 -429 324 -504
344 -27 7 -42 20 -59 50 -28 50 -135 136 -384 307 -109 75 -213 150 -230 167
-18 16 -88 61 -157 99 -69 38 -174 102 -235 142 -145 95 -190 117 -247 120
-52 3 -78 18 -182 105 -33 27 -112 86 -175 130 -64 44 -142 99 -173 122 -31
24 -96 68 -144 98 -90 57 -314 223 -395 293 -38 32 -45 44 -37 57 13 20 -20
88 -85 176 -69 94 -142 161 -215 198 -37 19 -93 57 -125 85 -59 51 -105 71
-168 71 -69 0 -98 18 -144 91 -74 114 -187 186 -369 234 -152 40 -313 52 -303
22 2 -6 19 -15 38 -20 48 -12 54 -22 21 -36 -42 -18 -67 -4 -177 96 -53 48
-120 103 -148 121 -61 38 -116 44 -124 12 -5 -19 -13 -20 -92 -18 -90 2 -111
-4 -164 -48 -16 -13 -34 -24 -41 -24 -8 0 -53 30 -102 66 -49 37 -99 70 -112
75 -22 9 -22 9 -6 46 20 47 23 173 4 258 -22 104 -44 140 -121 191 -72 47
-120 98 -129 135 l-5 21 -28 -22 c-31 -25 -43 -19 -49 20 -2 20 -9 25 -30 25
-15 1 -37 11 -48 23 -23 25 -43 28 -57 10z m84 -190 c31 -29 29 -64 -6 -99
-33 -32 -82 -39 -115 -14 -24 18 -16 48 24 98 36 42 63 47 97 15z m463 -603
c42 -22 53 -75 15 -75 -16 0 -55 52 -55 74 0 20 4 20 40 1z m533 -13 c23 -20
22 -39 -3 -47 -45 -14 -87 28 -60 60 13 15 35 10 63 -13z m-377 -154 c43 -32
104 -91 104 -100 0 -14 -41 11 -97 59 -50 42 -65 63 -44 63 4 0 21 -10 37 -22z
m1452 -594 c104 -21 204 -68 248 -117 30 -33 34 -41 23 -52 -19 -18 -55 -23
-52 -8 9 47 -255 143 -392 143 -52 0 -55 -7 -20 -40 30 -28 31 -36 5 -43 -70
-18 70 -117 166 -117 31 0 41 35 18 61 -9 10 -29 19 -44 19 -61 0 -90 12 -90
35 0 36 32 69 59 60 12 -4 69 -51 126 -105 114 -108 189 -160 207 -142 17 17
-9 42 -43 42 -71 0 13 40 92 43 28 2 34 -2 35 -18 1 -11 2 -26 3 -33 0 -7 48
-35 104 -62 65 -31 117 -63 138 -86 115 -124 180 -180 310 -267 173 -115 346
-207 462 -246 97 -33 154 -68 213 -133 39 -42 80 -125 73 -147 -2 -5 -41 15
-85 46 -46 31 -89 53 -100 51 -15 -3 -8 -14 39 -66 58 -63 68 -94 34 -100 -32
-6 -164 65 -350 189 -100 67 -208 134 -240 150 -32 15 -73 43 -90 63 -24 27
-64 49 -167 92 -174 72 -224 98 -262 134 -23 22 -41 30 -67 30 -74 0 -76 -28
-5 -79 67 -49 89 -105 25 -65 -48 30 -222 156 -219 159 2 2 24 0 49 -4 54 -9
89 1 89 25 0 34 -151 166 -265 233 -222 130 -405 260 -405 288 0 68 198 104
378 67z m-126 -461 c21 -19 24 -43 5 -43 -20 0 -57 30 -57 46 0 19 29 18 52
-3z m785 -481 c110 -66 197 -112 213 -112 6 0 2 12 -10 27 -50 63 34 41 115
-31 l40 -35 -50 -1 c-69 0 -114 14 -230 71 -102 50 -195 113 -203 138 -7 20
10 12 125 -57z m949 -387 c4 -8 3 -23 0 -32 -6 -15 -9 -15 -28 4 -21 22 -18
43 8 43 8 0 17 -7 20 -15z m-521 -45 c17 -18 17 -20 1 -26 -20 -8 -52 19 -42
35 10 16 21 14 41 -9z m928 -255 c2 -13 -52 -39 -61 -30 -8 7 39 46 51 42 5
-1 9 -7 10 -12z m77 -75 c0 -21 -29 -35 -43 -21 -7 7 -5 17 8 31 20 22 35 18
35 -10z m1142 -827 c21 -19 24 -43 5 -43 -20 0 -57 30 -57 46 0 19 29 18 52
-3z m128 -93 c58 -29 62 -44 11 -37 -45 6 -71 21 -71 43 0 19 14 18 60 -6z
m-122 -426 c91 -46 107 -71 41 -60 -55 9 -172 62 -196 89 -18 20 -17 20 30 15
27 -3 82 -23 125 -44z m890 -81 c11 -38 -95 15 -148 73 -23 24 -17 23 59 -17
47 -24 87 -50 89 -56z m227 17 c17 -18 17 -20 1 -26 -20 -8 -52 19 -42 35 10
16 21 14 41 -9z m-876 -51 c46 -10 108 -45 97 -56 -2 -2 -18 3 -35 11 -44 23
-70 20 -77 -9 -3 -14 -11 -25 -16 -25 -10 0 -128 80 -128 86 0 8 112 3 159 -7z
m1661 -172 c0 -8 -9 -22 -20 -32 -18 -16 -20 -16 -26 -1 -7 19 12 46 32 46 8
0 14 -6 14 -13z m-1060 -340 c0 -16 -113 -77 -141 -77 -11 0 -19 3 -19 6 0 17
25 47 53 64 37 23 107 27 107 7z m1008 -73 c-4 -21 -48 -33 -48 -13 0 7 8 21
17 31 19 21 37 10 31 -18z m-968 -33 c0 -6 -16 -22 -35 -37 -20 -15 -34 -29
-31 -31 2 -2 50 10 107 27 107 32 214 48 244 36 27 -10 -2 -39 -31 -32 -26 7
-42 -10 -25 -27 8 -8 62 -12 166 -12 109 0 158 -4 166 -12 19 -19 6 -25 -68
-30 -111 -7 -116 -9 -109 -43 l6 -30 -56 0 c-43 0 -75 -8 -136 -36 -44 -20
-82 -34 -84 -31 -3 3 11 18 32 34 20 15 48 38 63 50 l26 22 -22 16 c-13 9 -23
27 -23 41 0 13 -2 24 -5 24 -3 0 -28 -17 -55 -39 -87 -69 -212 -80 -290 -26
l-39 27 -45 -30 c-25 -16 -62 -32 -83 -36 -26 -4 -62 -26 -118 -71 -77 -63
-81 -65 -135 -64 -30 0 -93 6 -140 12 l-85 12 48 33 c75 52 107 62 207 62 96
0 127 10 184 57 46 38 123 74 183 83 38 7 62 17 79 35 17 19 33 25 64 25 22 0
40 -4 40 -9z m848 -27 c-4 -21 -48 -33 -48 -13 0 7 8 21 17 31 19 21 37 10 31
-18z m-915 -189 c2 -13 -52 -39 -61 -30 -8 7 39 46 51 42 5 -1 9 -7 10 -12z
m-645 -132 c28 -3 52 -10 52 -14 0 -5 -17 -17 -38 -28 -37 -19 -39 -19 -132 0
-118 24 -160 37 -160 51 0 11 148 6 278 -9z m-174 -99 c22 -9 10 -24 -20 -24
-25 0 -33 15 -11 23 6 3 13 6 14 6 1 1 8 -2 17 -5z m186 -63 c0 -15 -71 -73
-114 -92 -44 -20 -86 -25 -86 -10 0 11 81 63 140 90 51 23 60 25 60 12z m-415
-242 c9 -14 -24 -49 -47 -49 -24 0 -34 26 -18 45 14 17 56 20 65 4z m-125 -59
c12 -7 12 -12 -4 -29 -23 -26 -48 -27 -69 -3 -13 14 -14 21 -5 30 14 14 57 15
78 2z"/>
<path d="M15140 8891 c0 -12 110 -74 118 -67 8 8 -28 46 -60 62 -31 16 -58 18
-58 5z"/>
<path d="M13303 10128 c-34 -16 -28 -26 20 -32 167 -20 213 -28 233 -41 29
-19 34 -19 34 0 0 23 -56 52 -132 70 -77 17 -123 18 -155 3z"/>
<path d="M13190 9606 c0 -18 76 -103 85 -94 10 9 -32 86 -54 98 -26 13 -31 13
-31 -4z"/>
<path d="M15448 9083 c-30 -8 -20 -31 20 -44 75 -26 197 -10 165 22 -22 22
-134 36 -185 22z"/>
<path d="M2101 8381 c-20 -13 5 -24 37 -16 20 5 23 8 11 16 -18 11 -30 11 -48
0z"/>
<path d="M15045 7960 c-10 -16 4 -30 50 -50 24 -10 61 -40 86 -69 83 -97 122
-100 78 -7 -14 31 -34 54 -58 67 -20 11 -51 31 -70 44 -35 26 -75 33 -86 15z"/>
<path d="M8435 7950 c-8 -13 13 -40 31 -40 22 0 28 22 9 37 -23 16 -32 16 -40
3z"/>
<path d="M10570 7867 c0 -10 90 -67 115 -73 45 -11 22 12 -45 46 -57 29 -70
34 -70 27z"/>
<path d="M10915 7765 c34 -29 258 -142 291 -147 11 -2 22 2 24 7 4 12 -271
152 -315 160 l-30 6 30 -26z"/>
<path d="M15779 7661 c23 -31 84 -81 100 -81 18 0 12 25 -11 47 -26 24 -89 63
-101 63 -5 0 1 -13 12 -29z"/>
<path d="M11306 7589 c31 -35 104 -73 116 -61 24 24 3 45 -62 63 -36 10 -67
18 -69 19 -2 0 4 -9 15 -21z"/>
<path d="M15815 7530 c-7 -11 35 -56 95 -102 l35 -27 -57 -1 c-96 0 -132 -25
-90 -63 25 -23 51 -21 78 4 18 17 38 22 106 25 45 2 97 7 113 11 69 15 169
-21 193 -70 15 -32 32 -35 32 -8 0 11 -18 35 -41 53 -109 87 -121 101 -117
130 4 26 4 27 -14 12 -20 -19 -60 -23 -97 -10 -21 7 -23 6 -18 -13 3 -11 1
-21 -3 -21 -5 0 -47 20 -94 45 -89 46 -110 52 -121 35z"/>
<path d="M11770 7440 c-12 -7 -12 -11 0 -25 14 -17 76 -18 73 0 -3 16 -58 35
-73 25z"/>
<path d="M16096 7335 c-9 -13 -16 -26 -16 -29 0 -6 250 -170 316 -208 30 -16
54 -25 54 -20 0 22 -205 172 -235 172 -18 0 -41 30 -56 73 -15 44 -39 48 -63
12z"/>
<path d="M12205 7216 c-20 -8 -25 -15 -16 -20 17 -11 76 1 91 19 11 13 8 15
-16 15 -16 -1 -42 -7 -59 -14z"/>
<path d="M12512 7195 c-14 -30 -16 -65 -4 -65 18 0 32 26 32 57 0 39 -12 43
-28 8z"/>
<path d="M12760 7140 c-30 -11 -56 -20 -57 -20 -2 0 -3 -5 -3 -11 0 -15 96 -5
116 12 15 12 19 39 7 39 -5 -1 -33 -10 -63 -20z"/>
<path d="M12895 7140 c-14 -15 -16 -23 -7 -32 17 -17 42 -1 42 27 0 30 -11 32
-35 5z"/>
<path d="M1715 7041 c34 -37 124 -68 151 -53 13 7 10 11 -19 16 -19 4 -51 18
-71 31 -20 14 -49 28 -64 31 l-27 7 30 -32z"/>
<path d="M16730 6961 c0 -66 14 -102 52 -138 33 -31 96 -56 125 -48 23 5 24
10 21 53 -3 46 -3 47 26 45 28 -2 28 -2 10 18 -28 31 -119 79 -150 79 -17 0
-39 11 -56 27 l-28 27 0 -63z"/>
<path d="M1940 6972 c0 -10 33 -26 88 -42 25 -7 32 -6 29 3 -7 24 -117 61
-117 39z"/>
<path d="M2150 6920 c0 -13 43 -30 76 -30 32 0 31 18 -2 30 -33 13 -74 13 -74
0z"/>
<path d="M5041 6881 c-20 -13 5 -24 37 -16 20 5 23 8 11 16 -18 11 -30 11 -48
0z"/>
<path d="M3470 6876 c0 -4 19 -16 43 -26 44 -20 123 -27 112 -10 -9 15 -155
49 -155 36z"/>
<path d="M4115 6850 c-15 -6 -7 -9 30 -9 37 0 45 3 30 9 -11 5 -24 9 -30 9 -5
0 -19 -4 -30 -9z"/>
<path d="M5775 6850 c-14 -6 -2 -9 40 -9 42 0 54 3 40 9 -11 5 -29 9 -40 9
-11 0 -29 -4 -40 -9z"/>
<path d="M17230 6832 c0 -14 96 -99 155 -137 71 -46 121 -63 137 -46 17 17
-27 54 -147 126 -91 55 -145 76 -145 57z"/>
<path d="M6590 6820 c-16 -5 6 -8 65 -8 59 0 81 3 65 8 -14 4 -43 8 -65 8 -22
0 -51 -4 -65 -8z"/>
<path d="M953 6770 c3 -27 1 -43 -9 -51 -18 -15 -103 -8 -270 22 -158 28 -237
29 -289 2 -52 -27 -101 -34 -260 -42 -113 -5 -127 -8 -108 -19 13 -7 71 -19
130 -27 234 -32 323 -48 437 -76 226 -57 371 -110 435 -160 14 -12 40 -19 64
-19 54 0 170 -20 182 -31 6 -6 -148 -7 -396 -3 -403 7 -406 7 -451 -15 -25
-11 -51 -33 -59 -47 -15 -29 -17 -28 65 -76 56 -33 71 -72 37 -99 -12 -10 -53
-25 -91 -33 -160 -37 -240 -87 -310 -196 -56 -88 -57 -125 -9 -349 31 -146
199 -218 584 -251 174 -14 773 -12 1120 5 348 17 362 17 235 -1 -307 -43 -713
-64 -1231 -64 l-357 0 -11 -44 c-34 -138 0 -180 179 -225 314 -77 953 -103
1266 -51 183 31 785 63 1084 58 182 -3 192 -4 141 -16 -139 -32 -552 -76
-1121 -117 -190 -14 -491 -39 -670 -55 -179 -16 -428 -36 -555 -45 -342 -23
-418 -36 -389 -65 31 -31 328 -36 852 -14 105 5 142 3 142 -5 0 -22 -75 -43
-181 -52 -59 -5 -160 -20 -225 -34 -127 -28 -342 -71 -516 -105 -60 -11 -119
-25 -132 -31 -25 -12 -46 -47 -46 -78 0 -10 -14 -46 -32 -81 -31 -60 -32 -62
-13 -76 26 -20 108 -17 196 5 41 10 175 57 299 104 305 115 434 158 503 164
53 5 57 4 57 -15 0 -15 -8 -24 -25 -28 -33 -8 -78 -61 -116 -137 -18 -34 -51
-92 -75 -129 -57 -89 -74 -123 -74 -148 0 -33 19 -20 79 51 29 35 73 87 96
115 51 60 121 99 320 177 336 133 481 156 760 122 207 -25 290 -18 565 49 286
70 458 103 629 121 75 9 204 24 286 35 193 25 340 37 600 50 285 14 426 27
515 49 116 29 299 55 723 101 200 22 239 20 330 -12 52 -19 73 -20 195 -15 75
3 223 18 327 32 336 47 840 45 1580 -5 426 -29 1066 -25 1117 6 32 20 -47 39
-342 84 -298 44 -382 67 -551 150 -64 31 -93 50 -78 50 13 0 240 -14 504 -31
470 -31 503 -32 1550 -39 935 -7 1081 -10 1155 -24 262 -51 422 -56 1120 -35
l365 11 218 -26 c216 -26 267 -25 233 3 -9 8 -36 16 -61 19 -50 5 -58 17 -19
26 64 17 -9 26 -271 36 -239 9 -478 30 -492 44 -2 2 19 7 46 11 28 4 53 10 56
14 6 10 -119 21 -234 21 -111 0 -222 11 -216 20 3 5 28 11 55 15 28 4 50 10
50 15 0 13 -73 38 -142 50 -81 13 -423 25 -471 16 -21 -4 -35 -11 -32 -16 3
-5 38 -19 78 -32 l72 -22 -60 -7 c-90 -10 -281 -10 -364 1 -52 7 -86 18 -111
35 -51 35 -175 51 -278 36 -65 -10 -81 -16 -104 -41 l-27 -30 -183 0 c-195 0
-740 23 -948 40 -187 15 -265 35 -216 53 8 3 25 3 38 1 22 -5 22 -5 -5 20 -32
30 -63 33 -89 9 -27 -24 -308 -36 -710 -29 -479 9 -520 14 -474 65 9 10 16 21
16 25 0 29 -194 59 -396 60 l-142 1 -41 -33 c-41 -33 -101 -53 -101 -34 0 5
14 15 30 22 17 7 30 16 30 20 0 4 -30 11 -67 14 -94 9 -690 25 -963 27 -124 0
-236 4 -250 8 -39 11 267 54 423 59 96 3 186 -1 300 -14 139 -16 239 -19 697
-19 493 0 695 8 828 32 39 7 25 23 -20 23 -42 0 -34 16 17 36 50 19 144 18
620 -7 351 -18 797 0 1040 41 61 10 180 23 265 29 312 22 417 33 488 52 160
41 326 62 344 44 3 -3 1 -24 -4 -45 -12 -48 -4 -62 56 -92 52 -26 86 -57 86
-79 0 -9 8 -20 18 -25 30 -13 307 -17 399 -4 96 12 135 33 93 48 l-24 9 25 7
c13 4 332 10 709 13 680 6 804 2 898 -28 43 -14 31 -29 -23 -29 -52 0 -75 -8
-75 -25 0 -21 28 -26 126 -19 79 6 101 4 134 -11 35 -16 48 -16 117 -6 43 6
144 34 225 61 178 60 225 65 693 80 187 6 381 15 430 20 149 16 190 13 207
-11 13 -21 17 -21 79 -10 35 7 132 15 214 19 l150 8 -57 13 c-129 31 -74 39
462 66 596 30 810 53 810 86 0 5 -64 9 -147 9 -208 0 -413 26 -398 50 11 18
-23 23 -224 31 -114 5 -259 15 -322 24 -230 30 -531 38 -1279 31 -399 -3 -825
-9 -947 -12 -133 -4 -223 -3 -223 2 0 5 58 29 128 52 197 65 195 68 -25 68
-106 0 -223 6 -268 13 -79 13 -135 34 -135 50 0 17 38 41 110 70 40 17 81 37
89 46 15 15 14 18 -3 31 -11 8 -43 14 -70 15 l-51 0 62 31 c35 17 60 34 57 39
-7 12 -197 11 -429 -2 -301 -16 -2089 -19 -2200 -3 -157 22 -522 41 -1245 64
-537 17 -701 30 -835 64 -60 16 -350 41 -825 73 -318 21 -1030 23 -1653 5
-447 -13 -587 -10 -587 13 0 12 134 75 157 75 5 0 18 7 29 15 17 15 14 15 -46
10 -170 -17 -489 -83 -565 -116 -39 -17 -51 -19 -81 -9 -21 7 -40 22 -47 37
-9 20 -17 24 -44 21 -23 -2 -38 4 -53 20 -12 13 -33 22 -50 22 -47 0 -44 18 7
34 l48 15 -75 -4 c-41 -3 -217 -9 -390 -15 -1532 -47 -2546 -45 -3057 5 -163
16 -248 34 -333 70 -32 14 -74 25 -91 25 -31 0 -32 -1 -26 -40z m8581 -500
c23 -5 52 -22 69 -40 18 -19 36 -30 46 -26 9 2 35 12 57 20 23 8 111 20 195
27 180 14 746 18 803 6 41 -9 39 -23 -4 -29 -17 -2 -26 -10 -28 -25 -3 -23 -8
-25 -114 -38 -53 -7 -97 -37 -63 -43 9 -2 82 1 160 7 252 19 757 11 1278 -20
108 -7 196 -14 194 -15 -2 -2 -243 -22 -537 -45 -627 -48 -770 -49 -1030 -4
-85 14 -254 39 -375 54 -208 26 -216 28 -156 34 35 4 107 7 160 8 53 0 105 4
116 8 19 7 18 9 -5 22 -27 15 -132 17 -535 8 -150 -3 -228 0 -275 9 -81 17
-224 62 -217 68 4 5 128 18 202 22 11 1 38 -3 59 -8z m-3400 -736 c24 -9 9
-24 -25 -24 -32 0 -40 16 -11 23 9 3 18 5 19 6 1 0 8 -2 17 -5z m1656 -343 c0
-15 -136 -20 -875 -30 -1118 -17 -1433 -30 -1560 -66 -71 -20 -260 -33 -666
-45 -195 -6 -550 -17 -790 -25 -511 -18 -509 -18 -489 -5 58 33 1323 123 2120
150 759 26 2260 40 2260 21z"/>
<path d="M7215 6790 c-14 -6 0 -9 45 -9 45 0 59 3 45 9 -11 5 -31 9 -45 9 -14
0 -34 -4 -45 -9z"/>
<path d="M16992 6698 c10 -29 187 -116 267 -132 34 -6 34 -6 16 15 -41 45
-293 149 -283 117z"/>
<path d="M17230 6701 c0 -5 16 -18 35 -30 27 -16 35 -17 35 -6 0 15 -37 45
-57 45 -7 0 -13 -4 -13 -9z"/>
<path d="M15975 6400 c-14 -6 -5 -9 35 -9 39 -1 51 2 40 9 -18 12 -48 12 -75
0z"/>
<path d="M17223 6403 c-24 -9 -13 -24 15 -21 15 2 26 8 25 13 -2 12 -23 16
-40 8z"/>
<path d="M16982 6364 c-26 -18 -28 -32 -7 -41 18 -6 55 23 55 44 0 17 -20 17
-48 -3z"/>
<path d="M15062 6334 c-26 -18 -28 -32 -7 -41 18 -6 55 23 55 44 0 17 -20 17
-48 -3z"/>
<path d="M16060 6320 l-55 -18 45 -1 c42 -1 145 21 158 33 13 14 -98 3 -148
-14z"/>
<path d="M13991 6250 c-112 -12 -122 -26 -27 -35 116 -10 328 7 309 26 -14 14
-184 19 -282 9z"/>
<path d="M14883 6193 c-24 -9 -13 -24 15 -21 15 2 26 8 25 13 -2 12 -23 16
-40 8z"/>
<path d="M14410 6120 c-12 -7 -12 -11 0 -25 14 -17 76 -18 73 0 -3 16 -58 35
-73 25z"/>
<path d="M16157 6099 c-22 -13 -13 -29 17 -29 34 0 87 21 80 31 -7 12 -75 11
-97 -2z"/>
<path d="M17555 5861 c-18 -7 -17 -8 6 -13 14 -2 34 -2 44 2 17 6 17 7 1 13
-21 8 -25 8 -51 -2z"/>
<path d="M17763 5863 c-24 -9 -13 -24 15 -21 15 2 26 8 25 13 -2 12 -23 16
-40 8z"/>
<path d="M20200 5790 c-11 -11 -20 -24 -20 -29 0 -5 -26 -22 -57 -38 -48 -23
-54 -29 -34 -31 43 -7 87 8 116 38 22 23 38 30 67 30 27 0 38 4 38 15 0 36
-78 47 -110 15z"/>
<path d="M17912 5635 c-35 -15 -43 -35 -13 -35 23 0 68 35 55 43 -5 3 -24 -1
-42 -8z"/>
<path d="M20080 5561 c0 -13 45 -36 87 -46 46 -9 75 2 71 28 -3 20 -10 22 -80
25 -48 2 -78 -1 -78 -7z"/>
<path d="M10880 5497 c-43 -15 -50 -40 -15 -63 23 -15 34 -16 86 -6 66 12 111
31 117 49 9 31 -118 44 -188 20z"/>
<path d="M20340 5491 c0 -22 13 -41 29 -41 27 0 33 12 14 32 -17 19 -43 24
-43 9z"/>
<path d="M20210 5453 c-48 -17 -119 -59 -152 -89 -46 -41 -73 -45 -64 -9 6 23
4 24 -18 15 -14 -5 -46 -20 -73 -33 -26 -13 -95 -43 -153 -66 -114 -45 -157
-72 -146 -90 19 -29 146 2 146 36 0 13 13 21 48 30 26 6 56 15 66 19 16 6 18
4 14 -14 -10 -36 18 -28 178 52 151 74 214 116 214 142 0 14 -31 18 -60 7z"/>
<path d="M8288 5443 c-29 -7 -21 -23 11 -23 34 0 49 15 25 24 -9 3 -16 5 -17
5 -1 -1 -10 -3 -19 -6z"/>
<path d="M17714 5439 c-3 -6 3 -20 14 -32 19 -19 22 -19 28 -4 13 35 -23 66
-42 36z"/>
<path d="M8618 5413 c-29 -7 -21 -23 11 -23 34 0 49 15 25 24 -9 3 -16 5 -17
5 -1 -1 -10 -3 -19 -6z"/>
<path d="M14133 5323 c-24 -9 -13 -23 18 -23 20 0 29 4 27 13 -5 13 -26 18
-45 10z"/>
<path d="M15220 5315 c-12 -14 -12 -18 0 -25 15 -10 70 9 73 25 3 18 -59 17
-73 0z"/>
<path d="M13615 5309 c-71 -11 -125 -27 -125 -39 0 -17 69 -22 242 -18 178 3
233 14 191 36 -51 28 -194 37 -308 21z"/>
<path d="M14939 5306 c-33 -7 -70 -23 -88 -39 -18 -15 -44 -27 -58 -27 -42 0
-21 -24 35 -39 64 -17 114 -9 127 21 7 15 34 32 80 51 38 15 74 32 79 37 14
14 -106 11 -175 -4z"/>
<path d="M11253 5293 c-24 -9 -13 -23 16 -23 34 0 49 15 25 24 -18 7 -23 7
-41 -1z"/>
<path d="M12260 5290 c-19 -6 -12 -8 30 -8 39 -1 49 2 35 8 -24 10 -33 10 -65
0z"/>
<path d="M12860 5287 c-56 -20 -50 -42 12 -45 135 -6 179 -5 189 5 27 27 -141
61 -201 40z"/>
<path d="M14643 5293 c-24 -9 -13 -23 18 -23 20 0 29 4 27 13 -5 13 -26 18
-45 10z"/>
<path d="M15012 5228 c-14 -14 -16 -35 -3 -43 12 -7 41 22 41 41 0 17 -22 18
-38 2z"/>
<path d="M16700 5209 c0 -36 11 -69 22 -69 5 0 18 10 29 23 l18 22 1 -27 c0
-32 5 -34 49 -12 24 12 46 15 78 10 55 -7 73 -20 66 -46 -8 -30 15 -24 47 11
35 36 47 69 30 79 -6 4 -73 10 -148 13 -76 4 -149 9 -164 13 -25 6 -28 3 -28
-17z"/>
<path d="M16450 5195 c-16 -20 3 -45 35 -45 32 0 51 25 35 45 -7 8 -23 15 -35
15 -12 0 -28 -7 -35 -15z"/>
<path d="M13974 5179 c-12 -11 -38 -26 -60 -34 l-39 -13 28 -7 c37 -10 94 2
101 21 8 22 7 54 -2 54 -4 0 -17 -9 -28 -21z"/>
<path d="M14196 5171 c-19 -7 -19 -8 2 -13 12 -4 35 -2 50 2 15 5 19 9 10 9
-9 1 -22 3 -30 5 -7 3 -22 1 -32 -3z"/>
<path d="M16605 5171 c-3 -5 4 -12 15 -16 25 -8 25 -13 0 -50 -25 -37 -25 -45
-2 -45 42 0 70 78 40 108 -14 14 -44 16 -53 3z"/>
<path d="M14778 5141 c-36 -3 -70 -9 -74 -13 -11 -12 16 -38 40 -38 25 0 46
-17 46 -37 0 -9 -15 -13 -46 -13 -31 0 -44 -4 -42 -12 16 -47 255 -24 259 25
1 6 2 18 3 25 2 20 27 32 69 32 43 0 45 -5 15 -29 -35 -29 -14 -44 49 -38 96
10 137 57 66 76 -66 18 -287 30 -385 22z"/>
<path d="M13621 5128 c-90 -13 -156 -43 -171 -78 -21 -51 15 -69 54 -26 17 17
41 26 97 34 79 12 164 35 189 52 13 9 13 11 0 20 -18 12 -81 11 -169 -2z"/>
<path d="M17600 5115 c-42 -19 -73 -24 -132 -25 -80 0 -90 -4 -61 -25 9 -7 14
-19 10 -28 -3 -8 -65 -50 -139 -94 -88 -52 -154 -99 -195 -140 -43 -42 -80
-69 -120 -85 -76 -31 -173 -94 -173 -112 0 -17 45 -73 69 -85 12 -7 29 -1 61
21 25 16 111 63 191 103 192 97 295 158 342 203 l38 37 29 -35 29 -35 1 26 c0
35 50 78 138 123 104 52 139 103 50 73 -24 -8 -86 -18 -138 -23 -86 -6 -94 -6
-82 9 22 26 101 52 114 39 18 -18 63 -14 81 6 25 27 22 46 -5 38 -16 -4 -28 1
-38 14 -15 18 -16 18 -70 -5z m-451 -381 c-14 -17 -82 -54 -100 -54 -20 0 9
27 54 49 50 25 64 27 46 5z"/>
<path d="M15481 5119 c-104 -20 -49 -46 72 -34 82 8 121 20 112 35 -7 12 -122
11 -184 -1z"/>
<path d="M14555 5090 c-31 -60 -17 -90 44 -90 68 0 81 58 22 97 -43 29 -47 29
-66 -7z"/>
<path d="M16525 5100 c-14 -15 -16 -23 -7 -32 15 -15 42 -2 42 21 0 29 -15 33
-35 11z"/>
<path d="M14228 5099 c-52 -20 -35 -30 94 -58 72 -16 101 5 59 43 -23 21 -115
30 -153 15z"/>
<path d="M13353 5053 c-24 -9 -13 -23 18 -23 20 0 29 4 27 13 -5 13 -26 18
-45 10z"/>
<path d="M11437 4993 c-29 -8 -14 -27 34 -41 51 -15 320 -37 344 -29 55 22
-43 53 -210 67 -127 10 -139 10 -168 3z"/>
<path d="M9445 4946 c-18 -13 -18 -14 3 -25 11 -6 51 -18 87 -26 61 -15 69
-15 92 0 19 13 22 19 13 30 -27 33 -160 47 -195 21z"/>
<path d="M10928 4903 c-29 -7 -21 -23 11 -23 34 0 49 15 25 24 -9 3 -16 5 -17
5 -1 -1 -10 -3 -19 -6z"/>
<path d="M16515 4824 c-70 -45 -145 -111 -145 -126 0 -18 38 -6 61 18 13 14
59 50 102 80 73 52 93 74 64 74 -7 0 -44 -21 -82 -46z"/>
<path d="M17560 4775 c-16 -19 -6 -45 18 -45 23 0 56 35 47 49 -9 16 -51 13
-65 -4z"/>
<path d="M10298 4723 c-29 -7 -21 -23 11 -23 34 0 49 15 25 24 -9 3 -16 5 -17
5 -1 -1 -10 -3 -19 -6z"/>
<path d="M16263 4645 c-21 -18 -24 -24 -12 -25 24 0 65 35 51 44 -6 3 -23 -5
-39 -19z"/>
<path d="M18040 4645 c-60 -21 -140 -65 -140 -76 0 -8 13 -9 38 -6 20 4 44 2
52 -4 13 -8 12 -12 -9 -29 -13 -11 -29 -20 -37 -20 -8 0 -14 -5 -14 -11 0 -18
61 -2 87 23 18 16 30 19 59 15 l37 -6 -31 32 c-37 38 -38 44 -15 69 22 24 15
28 -27 13z"/>
<path d="M17191 4606 c-8 -9 -29 -16 -51 -16 -26 0 -48 -9 -75 -30 -21 -16
-46 -30 -55 -30 -10 0 -41 -22 -69 -50 -30 -30 -60 -50 -74 -50 -12 0 -49 -16
-82 -35 -98 -58 -127 -68 -155 -58 -46 16 -37 45 31 98 l62 49 -49 13 c-117
30 -214 -1 -344 -112 -35 -30 -77 -61 -92 -68 -16 -6 -27 -19 -26 -27 1 -8 -1
-21 -5 -27 -11 -17 -88 -16 -112 1 -18 13 -18 15 11 41 16 15 56 41 89 57 119
60 295 201 295 236 0 19 -26 14 -57 -12 -17 -15 -45 -26 -69 -28 -33 -3 -40
-7 -42 -28 -5 -38 -49 -78 -127 -117 -38 -20 -106 -56 -150 -81 -43 -26 -100
-51 -125 -58 -34 -8 -46 -16 -48 -32 -5 -30 -35 -49 -117 -73 -38 -12 -90 -32
-114 -45 -62 -33 -80 -14 -44 47 20 33 14 44 -21 35 -15 -4 -26 -14 -28 -29
-2 -18 -11 -23 -45 -28 -24 -3 -46 -8 -49 -12 -4 -4 7 -27 25 -52 l32 -45 -55
6 c-54 6 -56 6 -66 -21 -10 -26 -13 -27 -61 -23 l-50 5 27 -28 26 -27 -23 -4
c-16 -2 -24 -10 -24 -23 0 -14 -8 -21 -27 -23 -24 -3 -28 0 -28 24 0 24 -3 26
-30 21 -59 -12 -170 -95 -170 -128 0 -47 -85 -104 -199 -134 -214 -55 -622
-295 -1156 -680 -115 -83 -349 -252 -520 -375 -346 -249 -689 -504 -929 -688
-183 -142 -224 -166 -259 -153 -46 18 -158 -36 -258 -125 -55 -49 -103 -74
-141 -74 -21 0 -21 0 -3 -14 19 -13 19 -16 3 -48 -9 -19 -80 -104 -158 -189
-161 -174 -181 -200 -161 -207 28 -9 81 -65 81 -86 0 -11 -16 -43 -35 -70 -19
-27 -35 -55 -35 -63 0 -19 31 -16 86 7 26 12 57 20 68 19 42 -3 53 2 126 61
44 35 85 60 99 60 22 0 23 -3 19 -54 -6 -72 -40 -122 -115 -171 -93 -61 -125
-95 -88 -95 9 0 50 17 93 39 118 59 117 59 159 12 20 -23 44 -41 53 -41 22 0
123 97 117 113 -3 8 -21 11 -52 9 l-49 -2 25 26 c28 30 114 82 179 108 25 10
126 42 226 70 135 39 198 62 250 93 84 50 179 82 195 66 15 -15 -78 -107 -126
-124 -39 -15 -41 -17 -20 -45 19 -26 19 -59 -2 -79 -12 -13 -28 -16 -60 -12
l-44 5 6 -62 c5 -44 2 -73 -9 -105 -9 -24 -16 -50 -16 -57 0 -23 27 -16 49 13
45 60 41 59 120 37 l24 -7 -27 45 c-26 45 -31 72 -20 102 7 18 49 22 59 6 12
-19 62 -10 101 19 21 16 68 54 104 86 79 69 173 135 194 135 8 0 39 21 68 47
95 84 425 283 470 283 8 0 45 27 82 59 37 33 117 90 177 128 121 74 233 169
189 158 -114 -27 -205 -45 -217 -43 -8 2 16 29 57 63 108 89 259 252 268 288
6 25 15 33 41 38 18 4 41 15 50 24 15 16 14 17 -21 12 -29 -4 -38 -2 -38 8 0
24 37 36 90 29 l49 -6 91 87 c49 47 96 85 103 82 7 -2 11 -17 9 -35 -4 -40 4
-40 56 -2 49 35 56 62 16 58 -15 -2 -29 3 -31 9 -5 14 26 29 78 37 19 4 62 26
95 50 91 67 153 70 139 7 -4 -17 -4 -31 -1 -31 3 0 29 9 58 21 59 23 108 64
108 90 0 23 12 30 63 34 70 6 149 42 315 142 86 53 254 149 372 215 259 145
493 282 538 316 38 29 41 56 7 78 -34 22 -31 34 9 34 48 0 66 -9 77 -36 12
-32 28 -30 85 11 84 61 108 75 142 84 18 6 42 21 53 35 12 15 41 31 76 41 75
22 142 57 172 89 24 25 24 27 8 44 -13 12 -39 18 -98 21 -98 4 -156 -10 -229
-55 -30 -19 -68 -34 -83 -34 -39 0 -78 -22 -158 -90 -40 -33 -101 -72 -144
-91 -53 -23 -75 -38 -75 -50 0 -27 -18 -33 -96 -32 -100 2 -138 -31 -68 -57
32 -12 32 -54 2 -74 -13 -8 -60 -19 -105 -25 -45 -6 -99 -17 -119 -26 -49 -20
-77 -19 -92 5 -17 28 -58 26 -78 -5 -18 -28 -51 -33 -60 -10 -8 21 10 41 73
81 34 22 66 53 88 89 23 36 49 62 75 75 22 11 77 54 122 96 131 119 230 181
334 211 102 28 238 90 358 162 139 84 232 124 300 129 56 4 60 4 47 -12 -14
-16 -82 -56 -96 -56 -4 0 -4 9 0 19 7 24 -11 37 -30 21 -31 -26 -6 -80 38 -80
11 0 33 11 47 25 28 27 100 46 100 27 0 -6 -16 -24 -35 -39 -40 -32 -44 -43
-15 -43 29 0 69 -21 75 -40 3 -10 15 -26 26 -36 17 -16 22 -16 30 -4 14 23 0
99 -29 160 -15 30 -28 58 -30 62 -9 20 29 5 45 -18 25 -34 95 -42 195 -24 87
15 128 46 128 96 0 44 -21 86 -54 108 -27 17 -33 49 -16 76 8 13 16 12 57 -10
25 -14 71 -44 101 -67 44 -34 60 -41 81 -36 43 10 130 44 135 52 3 5 -32 13
-77 20 -109 15 -154 28 -178 52 -12 12 -27 18 -39 14 -10 -3 -21 -1 -25 5 -10
16 11 37 44 43 32 7 90 52 79 62 -3 3 -60 -18 -125 -49 -178 -82 -225 -89
-109 -16 62 39 82 62 70 81 -12 20 -48 6 -94 -37 -74 -70 -97 -37 -35 50 19
27 42 68 51 92 18 49 16 75 -5 50z m-91 -117 c0 -18 -76 -89 -94 -89 -23 0 -7
28 39 69 37 32 55 39 55 20z m-130 -127 c0 -5 -11 -19 -25 -32 -14 -13 -25
-32 -25 -41 0 -20 -35 -43 -50 -34 -8 5 -2 28 25 103 5 13 75 17 75 4z m-633
-73 c-6 -23 -8 -23 106 1 45 10 66 10 97 1 22 -6 40 -16 40 -21 0 -21 -87 -55
-154 -60 -39 -3 -71 -10 -73 -17 -2 -6 16 -34 41 -62 26 -29 46 -58 46 -66 0
-28 -49 -29 -103 -1 -29 14 -58 26 -65 26 -7 0 -15 13 -18 28 -4 21 -14 31
-37 38 -25 7 -32 15 -32 33 0 19 7 27 32 33 19 5 40 20 50 36 32 52 81 74 70
31z m737 -31 c25 -18 66 -48 92 -67 25 -18 63 -35 85 -38 40 -6 65 -25 55 -42
-10 -16 -102 -31 -187 -31 -92 0 -104 11 -74 66 10 19 16 37 12 40 -3 3 -27
-4 -52 -15 -60 -27 -65 -26 -65 3 0 54 38 116 70 116 10 0 38 -15 64 -32z
m-1008 -49 c19 -22 19 -22 -3 -10 -19 10 -28 6 -76 -36 -91 -79 -217 -146
-232 -123 -14 22 73 94 190 157 71 38 95 41 121 12z m697 -1 c13 -19 2 -48
-17 -48 -9 0 -18 11 -22 24 -11 44 17 60 39 24z m-255 -98 c-12 -37 -26 -47
-34 -26 -7 19 23 69 36 61 5 -3 4 -18 -2 -35z m-341 -6 c3 -9 30 -27 60 -40
61 -27 67 -46 21 -74 -70 -42 -170 -38 -220 11 -17 16 -32 29 -34 29 -2 0 -8
-9 -14 -19 -8 -16 -5 -26 15 -49 14 -17 25 -37 25 -46 0 -21 -49 -33 -61 -15
-12 19 -11 106 1 129 13 24 70 59 123 76 57 17 77 17 84 -2z m484 -36 c-13
-10 -31 -18 -40 -18 -12 1 -9 7 12 25 16 14 33 22 39 19 7 -5 3 -14 -11 -26z
m-1023 -4 c15 -10 22 -25 22 -48 0 -23 7 -38 23 -50 21 -15 21 -16 3 -30 -10
-8 -44 -20 -75 -26 -167 -34 -201 -45 -201 -66 0 -9 12 -14 35 -14 19 0 35 -3
35 -7 0 -4 -29 -34 -64 -67 -42 -40 -67 -72 -71 -91 -11 -57 -29 -79 -74 -94
-36 -11 -45 -11 -55 0 -7 8 -18 66 -24 129 -6 64 -12 122 -14 130 -2 12 12 15
78 15 89 0 66 -12 239 125 28 22 56 40 63 40 13 0 15 10 12 48 -1 17 4 22 22
22 13 0 34 -7 46 -16z m252 -102 c0 -13 -76 -64 -175 -117 -49 -27 -111 -64
-137 -82 -52 -38 -156 -83 -189 -83 -36 0 -4 27 83 71 43 22 107 60 140 85 34
25 103 65 153 90 87 42 125 53 125 36z m-443 -794 c-6 -17 10 -48 24 -48 6 0
25 11 41 25 17 14 38 25 47 23 25 -5 19 -41 -9 -55 -30 -15 -96 -17 -105 -3
-19 32 -85 -8 -85 -51 0 -26 34 -29 141 -11 54 8 102 12 106 9 10 -10 -51 -70
-97 -96 l-40 -22 0 25 c0 14 -3 27 -8 30 -4 2 -45 -5 -91 -15 -105 -25 -145
-23 -149 9 -4 29 49 82 146 147 69 47 87 54 79 33z m278 -20 c-9 -6 -28 -7
-43 -2 l-27 7 25 7 c14 3 33 4 44 2 17 -5 17 -6 1 -14z m-597 -255 c-25 -27
-194 -143 -208 -143 -19 0 -21 22 -5 46 29 45 204 142 228 127 5 -3 -2 -16
-15 -30z m196 1 c16 -6 23 -54 8 -54 -15 0 -44 38 -37 49 7 13 8 13 29 5z
m-59 -64 c0 -22 -71 -58 -86 -43 -9 9 -5 18 15 38 28 28 71 31 71 5z m-387
-139 c4 -25 -16 -81 -28 -81 -19 0 -25 46 -10 85 12 31 34 29 38 -4z m-2770
-1547 c-8 -7 -88 -8 -95 0 -4 3 18 6 47 6 29 0 51 -3 48 -6z"/>
<path d="M16061 4027 c-17 -21 -3 -49 23 -45 15 2 21 10 21 28 0 28 -26 38
-44 17z"/>
<path d="M15252 3760 c-22 -9 -39 -36 -29 -46 9 -9 53 7 83 31 l29 24 -30 0
c-16 0 -40 -4 -53 -9z"/>
<path d="M17440 4595 c-16 -19 -6 -45 18 -45 23 0 56 35 47 49 -9 16 -51 13
-65 -4z"/>
<path d="M19833 4573 c-22 -8 -14 -23 11 -23 30 0 42 15 20 24 -9 3 -16 6 -17
5 -1 0 -8 -3 -14 -6z"/>
<path d="M16112 4553 c-36 -17 -42 -33 -13 -33 23 0 68 35 55 43 -6 3 -24 -1
-42 -10z"/>
<path d="M17332 4548 c-15 -15 -16 -64 -2 -73 18 -11 50 6 56 31 10 41 -27 69
-54 42z"/>
<path d="M17835 4509 c-8 -12 24 -51 36 -43 15 9 10 41 -7 48 -21 8 -22 8 -29
-5z"/>
<path d="M17763 4453 c-24 -9 -13 -23 17 -23 32 0 40 14 14 24 -9 3 -16 6 -17
5 -1 0 -8 -3 -14 -6z"/>
<path d="M16082 4433 c-36 -17 -42 -33 -13 -33 23 0 68 35 55 43 -6 3 -24 -1
-42 -10z"/>
<path d="M18120 4390 c-47 -16 -104 -29 -128 -30 -47 0 -64 -19 -41 -46 9 -11
22 -14 42 -10 42 8 190 80 206 99 7 9 12 17 10 17 -2 -1 -42 -14 -89 -30z"/>
<path d="M17713 4335 c-6 -18 23 -55 45 -55 9 0 24 7 33 16 14 13 16 21 8 35
-12 24 -77 27 -86 4z"/>
<path d="M17685 4171 c-33 -10 -100 -30 -149 -45 -48 -14 -102 -26 -118 -26
-37 0 -35 -24 4 -53 20 -15 31 -17 40 -10 7 6 52 18 101 26 70 12 94 21 121
45 19 16 48 38 65 48 62 37 32 43 -64 15z"/>
<path d="M17240 3940 c-36 -22 -82 -43 -102 -46 -48 -8 -73 -26 -65 -47 5 -15
13 -14 69 7 154 58 209 91 193 116 -10 17 -27 12 -95 -30z"/>
<path d="M16673 3899 c-40 -20 -56 -39 -33 -39 19 0 90 40 90 50 0 14 -10 12
-57 -11z"/>
<path d="M16872 3848 c-14 -14 -16 -35 -3 -43 12 -7 41 22 41 41 0 17 -22 18
-38 2z"/>
<path d="M16400 3789 c-59 -32 -123 -89 -101 -89 20 0 124 58 162 90 29 25 31
29 14 29 -11 1 -45 -13 -75 -30z"/>
<path d="M16181 3672 c-36 -36 -40 -55 -10 -50 30 4 67 54 52 69 -9 9 -20 4
-42 -19z"/>
<path d="M16036 3573 c-3 -4 1 -15 11 -25 18 -20 67 -25 61 -6 -5 15 -63 40
-72 31z"/>
<path d="M15825 3490 c-4 -7 2 -22 14 -34 22 -21 22 -21 37 -1 8 10 13 24 11
30 -5 14 -54 18 -62 5z"/>
<path d="M15715 3330 c-14 -15 -16 -23 -7 -32 15 -15 42 -2 42 21 0 29 -15 33
-35 11z"/>
<path d="M15938 2562 c-29 -6 -20 -22 12 -22 17 0 30 4 30 9 0 12 -21 18 -42
13z"/>
<path d="M15728 2412 c-29 -6 -20 -22 12 -22 17 0 30 4 30 9 0 12 -21 18 -42
13z"/>
<path d="M15599 2327 c-30 -18 -96 -64 -148 -100 -52 -37 -105 -70 -118 -73
-18 -5 -23 -13 -23 -40 0 -26 -10 -45 -41 -79 -49 -53 -44 -56 17 -15 39 28
75 70 58 70 -19 0 27 34 80 60 57 27 230 164 249 196 14 24 -16 16 -74 -19z"/>
<path d="M15093 1885 c-21 -18 -24 -24 -12 -25 24 0 65 35 51 44 -6 3 -23 -5
-39 -19z"/>
<path d="M14854 1717 c-157 -116 -522 -460 -569 -535 -14 -24 -25 -45 -23 -47
2 -2 89 78 193 178 200 189 317 292 399 347 61 41 86 66 86 85 0 25 -25 17
-86 -28z"/>
<path d="M14040 1233 c-30 -16 -35 -23 -38 -59 -5 -70 17 -73 77 -9 29 31 51
61 48 68 -6 19 -49 19 -87 0z"/>
<path d="M10867 1119 c-20 -17 -37 -35 -37 -40 0 -20 43 -4 63 22 31 42 16 53
-26 18z"/>
<path d="M11110 1081 c0 -5 25 -32 56 -60 57 -53 99 -66 111 -35 9 23 -23 49
-96 78 -73 30 -71 29 -71 17z"/>
<path d="M11385 879 c-7 -11 22 -49 37 -49 15 0 8 48 -8 54 -21 8 -22 8 -29
-5z"/>
<path d="M12615 789 c-7 -11 22 -49 37 -49 15 0 8 48 -8 54 -21 8 -22 8 -29
-5z"/>
<path d="M12318 679 c-54 -40 -168 -212 -168 -254 0 -21 17 -19 37 5 12 13 30
20 55 20 32 0 41 5 58 32 11 18 27 67 36 108 9 41 18 83 21 93 6 22 -6 21 -39
-4z"/>
<path d="M13452 88 c-36 -53 -50 -92 -31 -86 17 5 79 95 79 114 0 26 -19 14
-48 -28z"/>
</g>
</svg>
